<?xml version="1.0" encoding="UTF-8"?>
<svg width="499px" height="500px" viewBox="0 0 499 500" version="1.1" xmlns="http://www.w3.org/2000/svg" xmlns:xlink="http://www.w3.org/1999/xlink">
    <!-- Generator: Sketch 45.2 (43514) - http://www.bohemiancoding.com/sketch -->
    <title>storytellers united square copy</title>
    <desc>Created with Sketch.</desc>
    <defs></defs>
    <g id="Page-1" stroke="none" stroke-width="1" fill="none" fill-rule="evenodd">
        <g id="storytellers-united-square-copy">
            <g id="Group">
                <polygon id="Path-1" fill="#00ADE5" points="0 24.2424242 220.259615 241.75399 43.0020621 309.065663"></polygon>
                <polygon id="Path-2" fill="#F5A623" points="0.218560524 24.5658772 226.93708 248.935145 301.405337 58.5327503"></polygon>
                <polygon id="Path-3" fill="#FF5A18" points="327.1031 -2.20483564e-14 216.825489 246.761692 475.423909 242.14829"></polygon>
                <polygon id="Path-4" fill="#00ADE5" points="327.998482 0.823395361 474.390067 243.313227 497.7826 91.1887532"></polygon>
                <polygon id="Path-6" fill="#FF5A18" points="2.4153601 321.611724 34.9342745 499.601793 228.329206 306.060606"></polygon>
                <polygon id="Path-7" fill="#00ADE5" points="35.2347652 499.496737 347.143348 452.447754 221.083938 285.44181"></polygon>
                <polygon id="Path-9" fill="#00ADE5" points="497.318112 382.60461 416.411793 247.189885 222.129082 314.897248"></polygon>
                <polygon id="Path-5" fill="#C1ECFC" points="256.260821 321.203955 2.58766702 321.203955 219.537426 241.913732 443.705974 295.255547"></polygon>
                <polygon id="Path-8" fill="#F5A623" points="333.422471 434.471998 187.218213 303.654352 498.423135 381.559527"></polygon>
                <polygon id="Path-2" fill="#F5A623" points="220.017121 242.622676 431.717907 321.001157 475.91462 242.622676"></polygon>
            </g>
            <path d="M55.2995841,294.634343 C60.829895,296.393988 66.6114969,297.776545 72.6445633,298.782056 C77.6721186,300.038945 83.390877,301.044441 89.8010101,301.798574 C96.2111432,302.552707 102.684024,302.929768 109.219846,302.929768 C120.783223,302.929768 126.564825,298.65641 126.564825,290.109566 C126.564825,286.841655 124.805207,283.51095 121.285918,280.11735 C117.766629,276.72375 113.304741,272.95314 107.900119,268.805407 C102.495497,264.657674 96.7138949,260.070098 90.5551396,255.042543 C84.3963843,250.014988 78.6147824,244.233386 73.2101604,237.697564 C67.8055384,231.161742 63.34365,223.809053 59.8243613,215.639275 C56.3050725,207.469498 54.5454545,198.105816 54.5454545,187.54795 C54.5454545,175.733195 56.6821335,165.301174 60.9555556,156.251575 C65.2289776,147.201975 71.1362665,139.660755 78.6775995,133.627689 C86.2189325,127.594622 95.0798659,123.007047 105.260665,119.864825 C115.441465,116.722603 126.31339,115.151515 137.876768,115.151515 C143.909834,115.151515 149.94281,115.465733 155.975876,116.094177 C162.008943,116.722621 167.413484,117.288213 172.189661,117.790969 C177.719972,118.545102 183.124513,119.299224 188.403446,120.053357 L188.403446,190.564468 C186.392424,190.31309 184.130058,190.061716 181.61628,189.810339 C179.605258,189.558961 177.342892,189.307587 174.829115,189.056209 C172.315337,188.804831 169.67591,188.679144 166.910755,188.679144 C165.402488,188.679144 163.517183,188.741988 161.254783,188.867677 C158.992383,188.993366 156.855704,189.307583 154.844682,189.810339 C152.83366,190.313094 151.074042,191.192903 149.565775,192.449792 C148.057509,193.706681 147.303387,195.466299 147.303387,197.728699 C147.303387,199.739721 149.000161,202.253461 152.393761,205.269994 C155.787361,208.286527 159.935032,211.805763 164.836898,215.827807 C169.738765,219.849852 175.143306,224.500271 181.050683,229.779204 C186.958061,235.058137 192.362602,241.091113 197.264468,247.878313 C202.166335,254.665512 206.314006,262.332419 209.707605,270.879263 C213.101205,279.426107 214.79798,288.978319 214.79798,299.536185 C214.79798,310.596807 213.038362,320.965984 209.519073,330.644029 C205.999784,340.322073 200.5324,348.743101 193.116756,355.907368 C185.701112,363.071634 176.211743,368.727549 164.648366,372.875282 C153.084989,377.023015 139.385106,379.096851 123.548307,379.096851 C113.995951,379.096851 105.135018,378.656946 96.9652406,377.777124 C88.7954632,376.897302 81.5684608,375.828963 75.2840166,374.572074 C67.9940614,373.315185 61.3326505,371.806941 55.2995841,370.047296 L55.2995841,294.634343 Z M334.704575,379.096851 C318.867776,379.096851 304.539458,377.085859 291.719192,373.063815 C278.898926,369.04177 267.964157,363.008794 258.914557,354.964706 C249.864958,346.920617 242.889329,336.73997 237.987463,324.42246 C233.085596,312.104949 230.6347,297.650945 230.6347,281.060012 L230.6347,121.184551 L310.949495,121.184551 L310.949495,277.666429 C310.949495,286.464651 312.771956,293.188905 316.416934,297.839394 C320.061912,302.489883 326.157731,304.815092 334.704575,304.815092 C343.251419,304.815092 349.347239,302.489883 352.992216,297.839394 C356.637194,293.188905 358.459655,286.464651 358.459655,277.666429 L358.459655,121.184551 L439.151515,121.184551 L439.151515,281.060012 C439.151515,297.650945 436.700619,312.104949 431.798752,324.42246 C426.896886,336.73997 419.858414,346.920617 410.683125,354.964706 C401.507837,363.008794 390.510225,369.04177 377.689958,373.063815 C364.869692,377.085859 350.541374,379.096851 334.704575,379.096851 L334.704575,379.096851 Z" id="SU" fill="#FFFFFF"></path>
        </g>
    </g>
</svg>