<svg width="100" height="100" viewBox="0 0 100 100" fill="none" xmlns="http://www.w3.org/2000/svg">
<path d="M5.47 50.8H5.09V52.8H5.47C5.95 52.8 6.02 52.69 6.05 51.8C6.08 50.91 5.95 50.8 5.47 50.8Z" fill="white"/>
<path d="M32.14 47.67H30.39V49.34H32.14V47.67Z" fill="white"/>
<path d="M6 48.48C6 47.79 5.88 47.65 5.51 47.65H5.09V49.32H5.51C5.88 49.32 6 49.2 6 48.48Z" fill="white"/>
<path d="M23.67 47.65H23.28V52.83H23.67C24.01 52.83 24.15 52.67 24.15 52.13V48.36C24.15 47.81 24.01 47.65 23.67 47.65Z" fill="white"/>
<path d="M62.3 47.65H61.91V52.83H62.3C62.64 52.83 62.78 52.67 62.78 52.13V48.36C62.78 47.81 62.64 47.65 62.3 47.65Z" fill="white"/>
<path d="M5.47 50.8H5.09V52.8H5.47C5.95 52.8 6.02 52.69 6.05 51.8C6.08 50.91 5.95 50.8 5.47 50.8Z" fill="#333333"/>
<path d="M32.14 47.67H30.39V49.34H32.14V47.67Z" fill="#333333"/>
<path d="M6 48.48C6 47.79 5.88 47.65 5.51 47.65H5.09V49.32H5.51C5.88 49.32 6 49.2 6 48.48Z" fill="#333333"/>
<path d="M23.67 47.65H23.28V52.83H23.67C24.01 52.83 24.15 52.67 24.15 52.13V48.36C24.15 47.81 24.01 47.65 23.67 47.65Z" fill="#333333"/>
<path d="M64.44 36V42.81H0V57.72H64.44V64.52H100V36H64.44ZM6.36 54.29H3.42V46.17H5.85C7.14 46.17 7.66 46.74 7.66 47.84V48.54C7.69625 48.8665 7.6157 49.1952 7.43265 49.468C7.2496 49.7407 6.97587 49.9398 6.66 50.03V50.03C7.39 50.14 7.66 50.6 7.66 51.41V52.63C7.69249 52.8256 7.68394 53.0258 7.63491 53.2179C7.58587 53.41 7.49742 53.5899 7.37517 53.746C7.25292 53.9021 7.09954 54.0311 6.92478 54.1247C6.75001 54.2184 6.55768 54.2747 6.36 54.29ZM12.11 54.29H8.88V46.17H12.11V47.65H10.55V49.32H12V50.8H10.55V52.8H12.11V54.29ZM16.54 47.62H15V49.29H16.49V50.8H15V52.8H16.57V54.29H13.31V46.17H16.54V47.62ZM20.62 54.29H17.74V46.17H19.4V52.83H20.62V54.29ZM25.81 52.37C25.81 53.9 25.13 54.29 23.67 54.29H21.61V46.17H23.67C24.1616 46.1413 24.6527 46.234 25.1 46.44C25.58 46.71 25.81 47.2 25.81 48.09V52.37ZM35.24 54.27H33.59L32.15 50.79H30.39V52.79H32.14V54.3H28.72V46.19H32.14V47.67L33.67 51.26V46.2H35.22L35.24 54.27ZM42.24 48.4H40.57V47.91C40.57 47.59 40.43 47.46 40.09 47.46C39.9823 47.456 39.8755 47.4801 39.78 47.53C39.7203 47.5724 39.6731 47.63 39.6432 47.6968C39.6133 47.7636 39.6018 47.8373 39.61 47.91V52.52C39.6006 52.5939 39.6125 52.669 39.6444 52.7363C39.6763 52.8037 39.7268 52.8605 39.79 52.9C39.8837 52.944 39.9866 52.9645 40.09 52.96H40.3C40.4034 52.9499 40.4991 52.9009 40.5678 52.823C40.6365 52.745 40.673 52.6439 40.67 52.54V50.8H40.22V49.32H42.22V54.32H41.15L40.91 53.72C40.8333 53.8375 40.7463 53.9479 40.65 54.05C40.5724 54.143 40.4814 54.2238 40.38 54.29C40.1289 54.4263 39.8455 54.492 39.56 54.48V54.48C39.2305 54.4886 38.9051 54.4055 38.62 54.24C38.3964 54.0914 38.2159 53.8865 38.0965 53.6461C37.9772 53.4056 37.9232 53.1379 37.94 52.87V47.93C37.94 46.58 38.52 46.01 40.04 46.01C41.04 46.01 41.6 46.22 41.92 46.68C42.0782 46.9119 42.1745 47.1804 42.2 47.46C42.2109 47.6165 42.2109 47.7735 42.2 47.93L42.24 48.4ZM46.84 47.62H45.19V49.29H46.75V50.8H45.19V52.8H46.83V54.29H43.52V46.17H46.83L46.84 47.62ZM51 52.83V54.32H48V46.17H49.7V52.83H51ZM55.82 52.56C55.8491 53.007 55.7446 53.4525 55.52 53.84C55.19 54.32 54.59 54.48 53.67 54.48C53.2203 54.5011 52.771 54.4296 52.35 54.27C51.79 54.02 51.53 53.51 51.53 52.56V46.17H53.19V52.31C53.19 52.88 53.33 52.99 53.67 52.99C53.7429 53.0018 53.8171 53.0018 53.89 52.99C54.07 52.94 54.15 52.77 54.15 52.34V46.17H55.82V52.56ZM58.82 54.32H57.14V46.17H58.8L58.82 54.32ZM64.46 52.4C64.46 53.93 63.78 54.32 62.32 54.32H60.32V46.17H62.32C63.78 46.17 64.46 46.56 64.46 48.09V52.4ZM96.6 61.12H67.85V39.36H96.6V61.12Z" fill="#333333"/>
<path d="M62.3 47.65H61.91V52.83H62.3C62.64 52.83 62.78 52.67 62.78 52.13V48.36C62.78 47.81 62.64 47.65 62.3 47.65Z" fill="#333333"/>
</svg>
