<svg width="100" height="100" viewBox="0 0 100 100" fill="none" xmlns="http://www.w3.org/2000/svg">
<path d="M28.7 69C27.85 67.95 26.54 66.12 25.29 64.4C24.94 63.93 24.69 63.88 24.44 63.93V66.85C24.44 68.2 24.59 68.3 25.84 68.4V69H21.36V68.4C22.52 68.3 22.69 68.2 22.69 66.85V60.74C22.69 59.36 22.52 59.26 21.29 59.17V58.58H25.76V59.17C24.59 59.26 24.45 59.38 24.45 60.74V63.42C24.8963 63.2564 25.2973 62.989 25.62 62.64C26.4482 61.8098 27.2231 60.928 27.94 60C28.32 59.51 28.32 59.3 27.64 59.23H27.31V58.64H31.31V59.23C30.8282 59.2358 30.3526 59.3399 29.9124 59.5359C29.4722 59.7319 29.0767 60.0158 28.75 60.37C28 61 27.16 62 26.37 62.84C27.42 64.34 28.79 66.12 29.77 67.32C29.9665 67.6279 30.2291 67.8881 30.5387 68.0818C30.8483 68.2756 31.1972 68.3979 31.56 68.44V69H28.7Z" fill="#333333"/>
<path d="M38 69V68.4C38.95 68.26 39 68.13 38.84 67.46C38.65 66.95 38.4 66.22 38.14 65.46H35C34.7766 66.0262 34.583 66.6036 34.42 67.19C34.15 68.05 34.23 68.19 35.42 68.36V69H31.79V68.41C32.84 68.27 33.04 68.15 33.57 66.79L36.79 58.49L37.54 58.31C38.54 61.02 39.54 64.04 40.54 66.75C41.03 68.13 41.24 68.29 42.29 68.41V69H38ZM36.63 61H36.57C36.12 62.25 35.69 63.51 35.25 64.73H37.89L36.63 61Z" fill="#333333"/>
<path d="M48.72 61.14C48.41 60.14 47.96 59.01 46.64 59.01C46.4242 58.9988 46.2085 59.0326 46.0064 59.1091C45.8044 59.1857 45.6204 59.3033 45.4663 59.4547C45.3121 59.6061 45.191 59.7878 45.1108 59.9884C45.0305 60.189 44.9928 60.4041 45 60.62C45 61.62 45.68 62.16 47 62.82C48.32 63.48 49.79 64.41 49.79 66.1C49.79 67.79 48.29 69.27 46.04 69.27C45.5061 69.259 44.9769 69.168 44.47 69C44.1527 68.9223 43.8444 68.8117 43.55 68.67C43.3339 67.8123 43.1801 66.94 43.09 66.06L43.72 65.88C43.99 66.88 44.77 68.55 46.37 68.55C46.6025 68.5639 46.8352 68.5274 47.0524 68.4432C47.2695 68.3589 47.4659 68.2288 47.6282 68.0618C47.7905 67.8947 47.9149 67.6946 47.9928 67.4752C48.0708 67.2557 48.1005 67.022 48.08 66.79C48.08 65.79 47.29 65.16 46.08 64.54C44.69 63.84 43.37 62.98 43.37 61.33C43.37 59.68 44.67 58.33 46.87 58.33C47.5971 58.3458 48.3167 58.4809 49 58.73C49.07 59.3 49.18 59.98 49.32 61.01L48.72 61.14Z" fill="#333333"/>
<path d="M55.07 58.58C56.0375 58.4996 57.0059 58.7233 57.84 59.22C58.2112 59.4795 58.5118 59.8277 58.7144 60.2328C58.9169 60.6379 59.0151 61.0873 59 61.54C59.0083 62.4069 58.6771 63.2428 58.0773 63.8688C57.4775 64.4948 56.6565 64.8613 55.79 64.89C55.5635 64.9037 55.3365 64.9037 55.11 64.89L53.99 64.59V66.89C53.99 68.24 54.14 68.33 55.55 68.43V69H50.81V68.42C52.03 68.32 52.19 68.19 52.19 66.88V60.68C52.19 59.3 52.02 59.22 50.91 59.13V58.54L55.07 58.58ZM53.94 64C54.2597 64.1198 54.5985 64.1808 54.94 64.18C55.7 64.18 56.94 63.69 56.94 61.65C56.9843 61.345 56.9608 61.034 56.8714 60.7391C56.782 60.4442 56.6288 60.1726 56.4227 59.9436C56.2165 59.7145 55.9625 59.5336 55.6786 59.4138C55.3947 59.2939 55.0879 59.238 54.78 59.25C54.5349 59.2148 54.2855 59.2718 54.08 59.41C54.0077 59.4926 53.9542 59.5899 53.9231 59.6952C53.892 59.8005 53.8842 59.9113 53.9 60.02L53.94 64Z" fill="#333333"/>
<path d="M64.56 69V68.4C65.56 68.26 65.56 68.13 65.4 67.46C65.21 66.95 64.96 66.22 64.7 65.46H61.53C61.3208 66.0533 61.1439 66.6575 61 67.27C60.74 68.13 60.81 68.27 62 68.44V69H58.33V68.41C59.38 68.27 59.58 68.15 60.11 66.79L63.33 58.49L64.08 58.31C65.08 61.02 66.08 64.04 67.08 66.75C67.57 68.13 67.78 68.29 68.83 68.41V69H64.56ZM63.17 61H63.12C62.66 62.25 62.23 63.51 61.79 64.73H64.43L63.17 61Z" fill="#333333"/>
<path d="M79.42 69.17H78.89C78.3119 69.2219 77.7312 69.1049 77.2182 68.8333C76.7053 68.5618 76.2821 68.1472 76 67.64C75.52 66.94 75 65.99 74.56 65.18C74.4616 64.9646 74.297 64.7863 74.0901 64.6712C73.8832 64.556 73.6449 64.5101 73.41 64.54H72.97V66.9C72.97 68.23 73.11 68.34 74.33 68.44V69H69.76V68.4C70.99 68.3 71.17 68.19 71.17 66.86V60.67C71.17 59.36 71.01 59.26 69.83 59.17V58.58H74.1C75.0327 58.4902 75.9707 58.6854 76.79 59.14C77.1426 59.3689 77.4294 59.6857 77.6223 60.0592C77.8152 60.4327 77.9074 60.85 77.89 61.27C77.8863 61.8752 77.6906 62.4636 77.3312 62.9506C76.9718 63.4376 76.4672 63.798 75.89 63.98C76.15 64.44 76.77 65.53 77.25 66.26C77.5956 66.8532 78.0011 67.4094 78.46 67.92C78.7445 68.2483 79.1099 68.4966 79.52 68.64L79.42 69.17ZM73.54 63.87C74.0993 63.9172 74.6567 63.7609 75.11 63.43C75.4064 63.2093 75.6431 62.9181 75.7985 62.5829C75.9539 62.2476 76.0232 61.8788 76 61.51C76.035 61.2153 76.0056 60.9166 75.9139 60.6344C75.8221 60.3522 75.6702 60.0933 75.4686 59.8756C75.2671 59.6579 75.0206 59.4865 74.7463 59.3733C74.4721 59.2601 74.1765 59.2078 73.88 59.22C73.46 59.22 73.23 59.29 73.13 59.4C73.03 59.51 72.97 59.66 72.97 60.06V63.87H73.54Z" fill="#333333"/>
<path d="M81.74 69.23C81.5952 69.2302 81.4518 69.2009 81.3187 69.144C81.1855 69.0872 81.0652 69.0038 80.9652 68.8991C80.8651 68.7944 80.7874 68.6705 80.7366 68.5348C80.6859 68.3992 80.6632 68.2547 80.67 68.11C80.6555 67.9588 80.6727 67.8061 80.7206 67.662C80.7685 67.5178 80.8461 67.3852 80.9482 67.2728C81.0504 67.1603 81.1749 67.0704 81.3139 67.009C81.4528 66.9475 81.6031 66.9157 81.755 66.9157C81.9069 66.9157 82.0572 66.9475 82.1961 67.009C82.3351 67.0704 82.4596 67.1603 82.5618 67.2728C82.664 67.3852 82.7415 67.5178 82.7894 67.662C82.8373 67.8061 82.8545 67.9588 82.84 68.11C82.8484 68.2567 82.8262 68.4036 82.7748 68.5413C82.7234 68.6789 82.6439 68.8044 82.5414 68.9098C82.4389 69.0151 82.3156 69.0979 82.1794 69.1531C82.0431 69.2082 81.8969 69.2344 81.75 69.23H81.74Z" fill="#333333"/>
<path d="M39.42 29.48V29.33C39.77 29.33 39.8 29.26 39.8 28.97V27.76C39.8 27.55 39.8 27.53 39.62 27.52H39.4V27.38C39.6957 27.3314 39.9868 27.2578 40.27 27.16V29C40.27 29.29 40.27 29.34 40.65 29.36V29.51L39.42 29.48Z" fill="#333333"/>
<path d="M40 32.62C40.67 32.62 40.89 33.26 40.89 33.8C40.89 34.34 40.69 35 40 35C39.31 35 39.11 34.37 39.11 33.81C39.11 33.25 39.34 32.63 40 32.63V32.62ZM40 32.79C39.68 32.79 39.6 33.31 39.6 33.79C39.6 34.27 39.71 34.79 40.02 34.79C40.33 34.79 40.42 34.27 40.42 33.79C40.42 33.31 40.32 32.79 40.01 32.79H40Z" fill="#333333"/>
<path d="M39.42 40.41V40.26C39.77 40.26 39.8 40.19 39.8 39.9V38.69C39.8 38.48 39.8 38.46 39.62 38.44H39.4V38.3C39.6957 38.2515 39.9868 38.1779 40.27 38.08V39.9C40.27 40.19 40.27 40.24 40.65 40.26V40.41H39.42Z" fill="#333333"/>
<path d="M39.42 45.88V45.72C39.77 45.72 39.8 45.66 39.8 45.37V44.16C39.8 43.95 39.8 43.92 39.62 43.91H39.4V43.78C39.6937 43.722 39.9841 43.6485 40.27 43.56V45.38C40.27 45.66 40.27 45.71 40.65 45.74V45.89L39.42 45.88Z" fill="#333333"/>
<path d="M40 49C40.67 49 40.89 49.64 40.89 50.18C40.89 50.72 40.67 51.37 39.99 51.37C39.31 51.37 39.1 50.74 39.1 50.18C39.1 49.62 39.35 49 40 49ZM40 49.17C39.68 49.17 39.6 49.69 39.6 50.17C39.6 50.65 39.71 51.17 40.02 51.17C40.33 51.17 40.42 50.65 40.42 50.17C40.42 49.69 40.32 49.17 40.01 49.17H40Z" fill="#333333"/>
<path d="M60.18 29.48V29.33C60.53 29.33 60.57 29.26 60.57 28.97V27.76C60.57 27.55 60.57 27.53 60.38 27.52H60.16V27.38C60.456 27.3329 60.7472 27.2592 61.03 27.16V29C61.03 29.29 61.03 29.34 61.41 29.36V29.51L60.18 29.48Z" fill="#333333"/>
<path d="M60.78 32.62C61.45 32.62 61.67 33.26 61.67 33.8C61.67 34.34 61.45 35 60.78 35C60.11 35 59.88 34.37 59.88 33.81C59.88 33.25 60.11 32.63 60.78 32.63V32.62ZM60.78 32.79C60.46 32.79 60.38 33.31 60.38 33.79C60.38 34.27 60.48 34.79 60.79 34.79C61.1 34.79 61.19 34.27 61.19 33.79C61.19 33.31 61.09 32.79 60.78 32.79Z" fill="#333333"/>
<path d="M60.18 40.41V40.26C60.53 40.26 60.57 40.19 60.57 39.9V38.69C60.57 38.48 60.57 38.46 60.38 38.44H60.16V38.3C60.456 38.2529 60.7472 38.1793 61.03 38.08V39.9C61.03 40.19 61.03 40.24 61.41 40.26V40.41H60.18Z" fill="#333333"/>
<path d="M60.18 45.88V45.72C60.53 45.72 60.57 45.66 60.57 45.37V44.16C60.57 43.95 60.57 43.92 60.38 43.91H60.16V43.78C60.4539 43.7231 60.7444 43.6497 61.03 43.56V45.38C61.03 45.66 61.03 45.71 61.41 45.74V45.89L60.18 45.88Z" fill="#333333"/>
<path d="M60.78 49C61.45 49 61.67 49.64 61.67 50.18C61.67 50.72 61.45 51.37 60.78 51.37C60.11 51.37 59.88 50.74 59.88 50.18C59.88 49.62 60.11 49 60.78 49ZM60.78 49.17C60.46 49.17 60.38 49.69 60.38 50.17C60.38 50.65 60.48 51.17 60.79 51.17C61.1 51.17 61.19 50.65 61.19 50.17C61.19 49.69 61.09 49.17 60.78 49.17Z" fill="#333333"/>
<path d="M46.82 27.15C47.48 27.15 47.7 27.79 47.7 28.34C47.7 28.89 47.49 29.53 46.81 29.53C46.13 29.53 45.91 28.9 45.91 28.34C45.91 27.78 46.15 27.15 46.81 27.15H46.82ZM46.82 27.33C46.5 27.33 46.42 27.84 46.42 28.33C46.42 28.82 46.53 29.33 46.84 29.33C47.15 29.33 47.24 28.81 47.24 28.33C47.24 27.85 47.13 27.33 46.83 27.33H46.82Z" fill="#333333"/>
<path d="M46.82 32.62C47.48 32.62 47.7 33.26 47.7 33.8C47.7 34.34 47.49 35 46.81 35C46.13 35 45.91 34.37 45.91 33.81C45.91 33.25 46.15 32.63 46.81 32.63L46.82 32.62ZM46.82 32.79C46.5 32.79 46.42 33.31 46.42 33.79C46.42 34.27 46.53 34.79 46.84 34.79C47.15 34.79 47.24 34.27 47.24 33.79C47.24 33.31 47.13 32.79 46.83 32.79H46.82Z" fill="#333333"/>
<path d="M46.22 40.41V40.26C46.57 40.26 46.6 40.19 46.6 39.9V38.69C46.6 38.48 46.6 38.46 46.42 38.44H46.2V38.3C46.4957 38.2515 46.7868 38.1779 47.07 38.08V39.9C47.07 40.19 47.07 40.24 47.45 40.26V40.41H46.22Z" fill="#333333"/>
<path d="M46.82 43.55C47.48 43.55 47.7 44.19 47.7 44.73C47.7 45.27 47.49 45.93 46.81 45.93C46.13 45.93 45.91 45.29 45.91 44.73C45.91 44.17 46.15 43.55 46.81 43.55H46.82ZM46.82 43.72C46.5 43.72 46.42 44.24 46.42 44.72C46.42 45.2 46.53 45.72 46.84 45.72C47.15 45.72 47.24 45.2 47.24 44.72C47.24 44.24 47.13 43.72 46.83 43.72H46.82Z" fill="#333333"/>
<path d="M46.82 49C47.48 49 47.7 49.64 47.7 50.18C47.7 50.72 47.49 51.37 46.81 51.37C46.13 51.37 45.91 50.74 45.91 50.18C45.91 49.62 46.15 49 46.81 49H46.82ZM46.82 49.17C46.5 49.17 46.42 49.69 46.42 50.17C46.42 50.65 46.53 51.17 46.84 51.17C47.15 51.17 47.24 50.65 47.24 50.17C47.24 49.69 47.13 49.17 46.83 49.17H46.82Z" fill="#333333"/>
<path d="M54.19 27.15C54.86 27.15 55.07 27.79 55.07 28.34C55.07 28.89 54.86 29.53 54.18 29.53C53.5 29.53 53.28 28.9 53.28 28.34C53.28 27.78 53.52 27.15 54.18 27.15H54.19ZM54.19 27.33C53.87 27.33 53.79 27.84 53.79 28.33C53.79 28.82 53.9 29.33 54.21 29.33C54.52 29.33 54.61 28.81 54.61 28.33C54.61 27.85 54.51 27.33 54.2 27.33H54.19Z" fill="#333333"/>
<path d="M54.19 32.62C54.86 32.62 55.07 33.26 55.07 33.8C55.07 34.34 54.86 35 54.18 35C53.5 35 53.28 34.37 53.28 33.81C53.28 33.25 53.52 32.63 54.18 32.63L54.19 32.62ZM54.19 32.79C53.87 32.79 53.79 33.31 53.79 33.79C53.79 34.27 53.9 34.79 54.21 34.79C54.52 34.79 54.61 34.27 54.61 33.79C54.61 33.31 54.51 32.79 54.2 32.79H54.19Z" fill="#333333"/>
<path d="M53.59 40.41V40.26C53.94 40.26 53.97 40.19 53.97 39.9V38.69C53.97 38.48 53.97 38.46 53.79 38.44H53.57V38.3C53.8657 38.2515 54.1568 38.1779 54.44 38.08V39.9C54.44 40.19 54.44 40.24 54.82 40.26V40.41H53.59Z" fill="#333333"/>
<path d="M54.19 43.55C54.86 43.55 55.07 44.19 55.07 44.73C55.07 45.27 54.86 45.93 54.18 45.93C53.5 45.93 53.28 45.29 53.28 44.73C53.28 44.17 53.52 43.55 54.18 43.55H54.19ZM54.19 43.72C53.87 43.72 53.79 44.24 53.79 44.72C53.79 45.2 53.9 45.72 54.21 45.72C54.52 45.72 54.61 45.2 54.61 44.72C54.61 44.24 54.51 43.72 54.2 43.72H54.19Z" fill="#333333"/>
<path d="M54.19 49C54.86 49 55.07 49.64 55.07 50.18C55.07 50.72 54.86 51.37 54.18 51.37C53.5 51.37 53.28 50.74 53.28 50.18C53.28 49.62 53.52 49 54.18 49H54.19ZM54.19 49.17C53.87 49.17 53.79 49.69 53.79 50.17C53.79 50.65 53.9 51.17 54.21 51.17C54.52 51.17 54.61 50.65 54.61 50.17C54.61 49.69 54.51 49.17 54.2 49.17H54.19Z" fill="#333333"/>
</svg>
