<svg width="100" height="100" viewBox="0 0 100 100" fill="none" xmlns="http://www.w3.org/2000/svg">
<path d="M19.85 60.44H16.52V39.5H24.35C25.1878 39.4423 26.0283 39.5612 26.8173 39.8489C27.6062 40.1366 28.326 40.5866 28.93 41.17C30.0328 42.4441 30.596 44.0976 30.5 45.78C30.5583 47.1899 30.1467 48.5793 29.33 49.73C28.9291 50.2539 28.4284 50.6933 27.8569 51.0228C27.2854 51.3523 26.6543 51.5655 26 51.65L30.83 60.44H27.08L22.64 52H19.85V60.44ZM23.85 49.28C25.93 49.28 26.97 48.28 26.97 46.41V45.12C26.97 43.21 25.97 42.26 23.85 42.26H19.85V49.26L23.85 49.28Z" fill="#333333"/>
<path d="M37.37 44.33H37.1V60.44H34.16V39.5H38.48L44.63 55.61H44.9V39.5H47.84V60.44H43.52L37.37 44.33Z" fill="#333333"/>
<path d="M52.46 39.5H58.7C59.8435 39.4087 60.9916 39.6052 62.0397 40.0716C63.0877 40.538 64.0023 41.2594 64.7 42.17C65.9933 43.95 66.6367 46.55 66.63 49.97C66.6233 53.39 65.98 55.99 64.7 57.77C64.0023 58.6806 63.0877 59.402 62.0397 59.8684C60.9916 60.3347 59.8435 60.5313 58.7 60.44H52.46V39.5ZM58.46 57.68C59.1167 57.7246 59.7742 57.6065 60.3742 57.3361C60.9743 57.0657 61.4984 56.6514 61.9 56.13C62.728 54.8107 63.1198 53.2644 63.02 51.71V48.23C63.1199 46.6725 62.7281 45.1229 61.9 43.8C61.4973 43.2804 60.9728 42.868 60.3727 42.5994C59.7727 42.3308 59.1158 42.2142 58.46 42.26H55.76V57.68H58.46Z" fill="#333333"/>
<path d="M73.85 60.44H70.52V39.5H78.35C79.1878 39.4423 80.0283 39.5612 80.8173 39.8489C81.6062 40.1366 82.326 40.5866 82.93 41.17C84.0328 42.4441 84.596 44.0976 84.5 45.78C84.5583 47.1899 84.1467 48.5793 83.33 49.73C82.9291 50.2539 82.4284 50.6933 81.8569 51.0228C81.2854 51.3523 80.6543 51.5655 80 51.65L84.83 60.44H81.08L76.64 52H73.85V60.44ZM77.85 49.28C79.93 49.28 80.97 48.28 80.97 46.41V45.12C80.97 43.21 79.97 42.26 77.85 42.26H73.85V49.26L77.85 49.28Z" fill="#333333"/>
</svg>
