<svg width="100" height="100" viewBox="0 0 100 100" fill="none" xmlns="http://www.w3.org/2000/svg">
<path opacity="0.4" d="M25.02 27.41L47.04 49.21L29.21 55.74L25.02 27.41Z" fill="#333333"/>
<path opacity="0.4" d="M25.05 27.45L47.01 49.21L55.21 30.85L25.05 27.45Z" fill="#333333"/>
<path opacity="0.2" d="M57.8 24.95L47.01 49.21L72.72 49.3L57.8 24.95Z" fill="#333333"/>
<path opacity="0.4" d="M57.89 25.03L72.73 49.28L74.92 34.09L57.89 25.03Z" fill="#333333"/>
<path opacity="0.2" d="M25.24 57.2L28.5 75.05L44.05 57.16L25.24 57.2Z" fill="#333333"/>
<path opacity="0.4" d="M28.53 75.04L59.81 70.32L47.17 53.58L28.53 75.04Z" fill="#333333"/>
<path opacity="0.4" d="M74.98 63.21L69.5 54.56L50.7 57.16H45.74L58.44 68.52L74.98 63.21Z" fill="#333333"/>
<path opacity="0.5" d="M50.7 57.16H25.25L47.01 49.21L72.72 49.3L69.5 54.56L50.7 57.16Z" fill="#333333"/>
<path opacity="0.4" d="M58.45 68.52L43.77 55.4L74.98 63.21L58.45 68.52Z" fill="#333333"/>
<path opacity="0.4" d="M47.01 49.21L68.29 57.14L72.73 49.28L47.01 49.21Z" fill="#333333"/>
<path d="M30.54 54.5C31.1105 54.6742 31.6917 54.8111 32.28 54.91C32.8462 55.0498 33.4207 55.1533 34 55.22C34.6641 55.2939 35.3318 55.3307 36 55.33C37.16 55.33 37.74 54.9 37.74 54.04C37.7238 53.8462 37.6685 53.6576 37.5774 53.4858C37.4863 53.3139 37.3613 53.1623 37.21 53.04C36.7861 52.6371 36.3387 52.2598 35.87 51.91C35.3233 51.49 34.7433 51.03 34.13 50.53C33.4963 50.0063 32.9137 49.4237 32.39 48.79C31.8268 48.1174 31.3591 47.3704 31 46.57C30.6375 45.6784 30.4605 44.7223 30.48 43.76C30.4565 42.6787 30.6751 41.6058 31.12 40.62C31.5276 39.7345 32.1373 38.957 32.9 38.35C33.6876 37.7327 34.5876 37.2742 35.55 37C36.6097 36.6775 37.7124 36.519 38.82 36.53C39.43 36.53 40.03 36.53 40.64 36.62L42.26 36.79L43.89 37.02V44.09L43.21 44L42.53 43.93C42.2636 43.9143 41.9964 43.9143 41.73 43.93H41.17C40.9509 43.939 40.7333 43.9691 40.52 44.02C40.3275 44.0668 40.1491 44.1594 40 44.29C39.9215 44.3531 39.8596 44.4342 39.8195 44.5266C39.7794 44.6189 39.7624 44.7196 39.77 44.82C39.77 45.02 39.94 45.27 40.28 45.57C40.62 45.88 41.04 46.23 41.53 46.63C42.02 47.03 42.53 47.5 43.15 48.03C43.7592 48.5743 44.3059 49.1847 44.78 49.85C45.2754 50.5519 45.685 51.3107 46 52.11C46.3623 53.0302 46.5456 54.0111 46.54 55C46.5419 56.0602 46.3592 57.1126 46 58.11C45.655 59.0705 45.0899 59.937 44.35 60.64C43.5349 61.4071 42.5623 61.9872 41.5 62.34C40.1733 62.786 38.7794 62.9991 37.38 62.97C36.38 62.97 35.53 62.97 34.71 62.84C33.89 62.71 33.17 62.64 32.54 62.51C31.8645 62.4023 31.1965 62.252 30.54 62.06V54.5ZM58.54 62.97C57.0805 62.9894 55.6268 62.7837 54.23 62.36C53.0395 61.9871 51.9396 61.3707 51 60.55C50.0665 59.7076 49.3467 58.6554 48.9 57.48C48.3846 56.0925 48.1369 54.6198 48.17 53.14V37.14H56.17V52.79C56.127 53.4992 56.3204 54.2026 56.72 54.79C57.2254 55.2399 57.8784 55.4884 58.555 55.4884C59.2316 55.4884 59.8846 55.2399 60.39 54.79C60.7855 54.2007 60.9786 53.4987 60.94 52.79V37.1H69V53.1C69.0302 54.5805 68.7791 56.0532 68.26 57.44C67.8096 58.6185 67.0825 59.6714 66.14 60.51C65.1757 61.3387 64.048 61.9553 62.83 62.32C61.4335 62.7451 59.9796 62.9508 58.52 62.93L58.54 62.97Z" fill="#333333"/>
</svg>
