<svg width="221" height="221" viewBox="0 0 221 221" fill="none" xmlns="http://www.w3.org/2000/svg">
<circle cx="110.227" cy="110.228" r="90" transform="rotate(-15 110.227 110.228)" fill="#FF5A17"/>
<path d="M65.8741 92.5365C66.222 93.8347 66.3167 95.0847 66.1584 96.2867C65.996 97.4731 65.6164 98.5604 65.0198 99.5485C64.4346 100.517 63.6492 101.357 62.6637 102.068C61.6782 102.779 60.5441 103.307 59.2613 103.651C57.9786 103.994 56.7327 104.105 55.5236 103.981C54.3299 103.854 53.2298 103.519 52.2233 102.977C51.228 102.416 50.3634 101.662 49.6295 100.716C48.8914 99.7538 48.3485 98.6239 48.0006 97.3257C47.6486 96.012 47.5559 94.7697 47.7225 93.5986C47.885 92.4122 48.2609 91.3424 48.8503 90.3894C49.4552 89.4322 50.2447 88.6078 51.2189 87.9161C52.2085 87.2202 53.3447 86.7005 54.6274 86.3568C55.9102 86.013 57.1541 85.8951 58.359 86.0029C59.564 86.1107 60.6599 86.4299 61.6469 86.9606C62.6493 87.487 63.5175 88.2234 64.2514 89.1697C64.9812 90.1006 65.5221 91.2228 65.8741 92.5365ZM61.6318 93.6732C61.4413 92.9623 61.1473 92.3288 60.7498 91.7727C60.3524 91.2166 59.887 90.7781 59.3538 90.4572C58.8319 90.1167 58.2441 89.9015 57.5906 89.8116C56.9484 89.702 56.2795 89.7405 55.584 89.9268C54.8886 90.1132 54.2901 90.4143 53.7887 90.8303C53.2831 91.2308 52.8817 91.711 52.5846 92.271C52.2832 92.8156 52.0995 93.428 52.0333 94.1083C51.9826 94.7845 52.0525 95.478 52.243 96.1889C52.4417 96.9308 52.7419 97.5874 53.1435 98.159C53.541 98.715 54.0007 99.1633 54.5226 99.5039C55.06 99.8402 55.6498 100.063 56.292 100.173C56.9301 100.267 57.5969 100.221 58.2923 100.034C58.9878 99.8479 59.5883 99.5545 60.0939 99.154C60.5953 98.738 60.9946 98.2501 61.2918 97.6901C61.589 97.1301 61.7707 96.5099 61.8369 95.8296C61.8989 95.1338 61.8305 94.415 61.6318 93.6732ZM81.7768 90.9091C81.9922 91.7127 82.0756 92.5186 82.0271 93.3267C81.9786 94.1348 81.7914 94.8889 81.4655 95.5891C81.1509 96.2697 80.6992 96.8712 80.1103 97.3934C79.5214 97.9156 78.7942 98.2926 77.9287 98.5245C77.2178 98.715 76.5083 98.7561 75.8001 98.6477C75.0877 98.5238 74.4876 98.2622 73.9996 97.8629L73.9533 97.8754L75.7857 104.714L71.9838 105.733L67.3996 88.6243L71.016 87.6553L71.3949 89.0694L71.4645 89.0508C71.6957 88.4919 72.0749 87.9596 72.602 87.454C73.1404 86.9287 73.8346 86.5522 74.6846 86.3245C75.5191 86.1009 76.3199 86.0602 77.0869 86.2026C77.8539 86.3449 78.5437 86.6321 79.1564 87.0643C79.7846 87.4923 80.3217 88.0441 80.7678 88.7196C81.2251 89.3756 81.5615 90.1054 81.7768 90.9091ZM78.0909 91.8967C77.9915 91.5258 77.8323 91.1792 77.6135 90.8569C77.41 90.5304 77.1572 90.2669 76.855 90.0662C76.5641 89.846 76.2258 89.6965 75.8403 89.6176C75.4547 89.5387 75.0379 89.5593 74.5897 89.6794C74.1569 89.7953 73.7933 89.9838 73.4989 90.245C73.2044 90.5061 72.9708 90.8088 72.7981 91.1533C72.6408 91.4936 72.5402 91.8601 72.4964 92.2528C72.468 92.6414 72.5035 93.0212 72.6029 93.3921C72.7023 93.763 72.8614 94.1096 73.0803 94.432C73.3146 94.7502 73.585 95.0173 73.8913 95.2334C74.2132 95.4453 74.5668 95.5907 74.9524 95.6696C75.338 95.7485 75.7471 95.73 76.1798 95.614C76.628 95.4939 76.9994 95.3033 77.2938 95.0422C77.5883 94.7811 77.8064 94.4825 77.9482 94.1463C78.1055 93.806 78.1906 93.4436 78.2036 93.0592C78.2278 92.6551 78.1902 92.2677 78.0909 91.8967ZM91.7797 86.8623C91.6182 86.2595 91.2863 85.7936 90.784 85.4643C90.2971 85.131 89.675 85.0658 88.9178 85.2687C88.5468 85.3681 88.2234 85.521 87.9474 85.7275C87.6673 85.9185 87.4383 86.1455 87.2603 86.4085C87.0823 86.6715 86.961 86.9608 86.8965 87.2762C86.8278 87.5762 86.825 87.8751 86.8883 88.1729L91.7797 86.8623ZM95.6716 87.3848C95.713 87.5393 95.7544 87.6939 95.7958 87.8484C95.8372 88.003 95.8688 88.1519 95.8906 88.2951L87.5219 90.5375C87.6397 90.8538 87.8111 91.1226 88.0361 91.3439C88.2765 91.5611 88.5472 91.737 88.8484 91.8716C89.1608 91.9867 89.486 92.0569 89.8241 92.0823C90.1777 92.1035 90.5244 92.0686 90.8644 91.9774C91.4672 91.8159 91.9482 91.5711 92.3075 91.2429C92.6627 90.8993 92.924 90.5146 93.0915 90.0887L96.1815 91.0497C95.8518 91.9828 95.2967 92.7858 94.5163 93.4588C93.7471 94.1121 92.7753 94.5961 91.6007 94.9108C90.7353 95.1427 89.881 95.2308 89.0378 95.1752C88.1905 95.104 87.4049 94.8922 86.681 94.5395C85.9684 94.1673 85.3406 93.648 84.7977 92.9819C84.2702 92.3115 83.876 91.4896 83.6151 90.5159C83.3625 89.5732 83.2971 88.6797 83.4187 87.8354C83.5362 86.9757 83.8027 86.2086 84.2183 85.534C84.6297 84.844 85.1748 84.2508 85.8534 83.7542C86.532 83.2577 87.3117 82.8914 88.1927 82.6553C89.0427 82.4276 89.8625 82.3652 90.6521 82.4684C91.4375 82.5561 92.1577 82.8021 92.8127 83.2063C93.4676 83.6106 94.0377 84.1618 94.523 84.86C95.0237 85.5541 95.4065 86.3957 95.6716 87.3848ZM107.119 90.3551L105.43 84.0495C105.343 83.725 105.229 83.4242 105.089 83.1471C104.963 82.8659 104.81 82.6337 104.629 82.4504C104.443 82.2517 104.217 82.1216 103.952 82.0601C103.699 81.979 103.402 81.984 103.062 82.0751C102.722 82.1662 102.439 82.3165 102.214 82.526C102 82.7159 101.839 82.9495 101.731 83.2269C101.623 83.5042 101.564 83.8099 101.554 84.1438C101.555 84.4582 101.6 84.7776 101.687 85.1022L103.364 91.3614L99.5387 92.3863L96.4453 80.8416L100.131 79.8539L100.56 81.4535L100.606 81.4411C100.679 81.1565 100.793 80.8693 100.947 80.5796C101.112 80.2702 101.319 79.9911 101.567 79.7424C101.831 79.4896 102.126 79.2615 102.452 79.0581C102.779 78.8546 103.143 78.6991 103.545 78.5914C104.318 78.3844 105.012 78.3474 105.627 78.4807C106.243 78.6139 106.773 78.8612 107.217 79.2224C107.673 79.564 108.047 80.0021 108.34 80.5367C108.647 81.0671 108.878 81.6182 109.031 82.1901L110.944 89.3302L107.119 90.3551ZM133.662 80.8081C133.159 81.8373 132.441 82.742 131.507 83.5223C130.569 84.2871 129.404 84.8559 128.013 85.2286C126.746 85.5682 125.516 85.6743 124.322 85.5469C123.144 85.4153 122.059 85.0765 121.068 84.5304C120.073 83.9689 119.208 83.215 118.474 82.2687C117.74 81.3224 117.202 80.2079 116.858 78.9251C116.506 77.6114 116.411 76.3614 116.574 75.1749C116.751 73.9843 117.143 72.9104 117.748 71.9532C118.348 70.9806 119.136 70.1484 120.11 69.4567C121.084 68.765 122.197 68.2515 123.449 67.916C124.608 67.6055 125.8 67.5097 127.025 67.6288C128.26 67.7284 129.332 68.0791 130.238 68.6809L128.27 72.0906C127.762 71.68 127.174 71.4318 126.505 71.346C125.836 71.2602 125.185 71.3022 124.551 71.472C123.856 71.6584 123.249 71.9616 122.732 72.3817C122.227 72.7822 121.826 73.2624 121.528 73.8224C121.231 74.3824 121.049 75.0026 120.983 75.6829C120.913 76.3477 120.975 77.0434 121.17 77.7697C121.369 78.5116 121.667 79.1605 122.064 79.7166C122.462 80.2727 122.921 80.721 123.443 81.0615C123.976 81.3824 124.562 81.5899 125.2 81.684C125.838 81.778 126.497 81.7339 127.177 81.5517C127.966 81.3405 128.612 81.0017 129.116 80.5353C129.621 80.0688 129.984 79.5407 130.207 78.9509L133.662 80.8081ZM140.821 75.933L140.334 76.0635C139.917 76.1753 139.498 76.3123 139.078 76.4747C138.669 76.6174 138.309 76.7884 137.998 76.9877C137.702 77.1828 137.475 77.4176 137.317 77.6919C137.154 77.9508 137.119 78.2502 137.21 78.5902C137.268 78.8066 137.364 78.9796 137.498 79.1093C137.648 79.2349 137.812 79.3233 137.991 79.3747C138.171 79.426 138.367 79.4479 138.581 79.4404C138.79 79.4175 138.987 79.3812 139.172 79.3315C139.945 79.1245 140.477 78.7585 140.767 78.2335C141.068 77.689 141.121 77.0535 140.927 76.3271L140.821 75.933ZM132.52 72.8649C133.026 72.0336 133.684 71.3356 134.493 70.7708C135.318 70.202 136.202 69.7912 137.145 69.5386C138.118 69.2777 138.971 69.1819 139.702 69.2511C140.444 69.3007 141.092 69.5246 141.646 69.9228C142.195 70.3056 142.667 70.8585 143.059 71.5815C143.463 72.285 143.806 73.1622 144.087 74.2131L145.646 80.0318L142.169 80.9636L141.84 79.7349L141.77 79.7535C141.605 80.3113 141.256 80.8023 140.724 81.2266C140.207 81.6467 139.601 81.9499 138.905 82.1362C138.442 82.2605 137.946 82.327 137.418 82.3359C136.891 82.3448 136.381 82.266 135.889 82.0996C135.413 81.9291 134.981 81.6472 134.594 81.254C134.207 80.8608 133.923 80.3241 133.74 79.6441C133.517 78.8096 133.561 78.0772 133.872 77.4471C134.199 76.8129 134.681 76.2614 135.317 75.7927C135.969 75.3199 136.723 74.9191 137.579 74.5904C138.435 74.2616 139.28 73.9854 140.115 73.7618L140.065 73.5763C139.912 73.0045 139.599 72.641 139.127 72.486C138.651 72.3155 138.119 72.3089 137.532 72.4662C136.991 72.6112 136.496 72.8679 136.048 73.2364C135.616 73.6007 135.266 73.9928 134.997 74.4126L132.52 72.8649ZM148.53 79.259L143.834 61.7333L147.683 60.7022L152.379 78.2279L148.53 79.259ZM155.435 77.4089L150.739 59.8831L154.587 58.852L159.283 76.3778L155.435 77.4089ZM65.7814 122.816C65.6199 122.213 65.288 121.748 64.7857 121.418C64.2988 121.085 63.6768 121.02 62.9195 121.223C62.5486 121.322 62.2251 121.475 61.9492 121.681C61.669 121.872 61.44 122.099 61.262 122.362C61.084 122.625 60.9628 122.915 60.8982 123.23C60.8295 123.53 60.8268 123.829 60.89 124.127L65.7814 122.816ZM69.6733 123.339C69.7147 123.493 69.7561 123.648 69.7975 123.802C69.8389 123.957 69.8706 124.106 69.8924 124.249L61.5236 126.491C61.6415 126.808 61.8129 127.077 62.0378 127.298C62.2782 127.515 62.549 127.691 62.8501 127.826C63.1625 127.941 63.4878 128.011 63.8258 128.036C64.1794 128.057 64.5262 128.023 64.8662 127.931C65.4689 127.77 65.9499 127.525 66.3092 127.197C66.6644 126.853 66.9257 126.468 67.0932 126.043L70.1832 127.004C69.8535 127.937 69.2984 128.74 68.518 129.413C67.7489 130.066 66.777 130.55 65.6025 130.865C64.737 131.097 63.8827 131.185 63.0396 131.129C62.1923 131.058 61.4067 130.846 60.6827 130.493C59.9701 130.121 59.3423 129.602 58.7994 128.936C58.2719 128.265 57.8778 127.444 57.6169 126.47C57.3643 125.527 57.2988 124.634 57.4204 123.789C57.5379 122.93 57.8045 122.163 58.22 121.488C58.6315 120.798 59.1765 120.205 59.8551 119.708C60.5337 119.212 61.3135 118.845 62.1944 118.609C63.0444 118.382 63.8642 118.319 64.6538 118.422C65.4393 118.51 66.1595 118.756 66.8144 119.16C67.4694 119.565 68.0395 120.116 68.5247 120.814C69.0254 121.508 69.4083 122.35 69.6733 123.339ZM80.9017 126.368L77.4708 123.486L75.8711 127.716L71.4665 128.896L74.4585 121.609L68.8136 117.233L73.2414 116.047L76.2235 118.552L77.5765 114.885L81.8652 113.736L79.1877 120.342L85.3759 125.169L80.9017 126.368ZM88.5812 114.993L89.7615 119.397C89.9064 119.938 90.1166 120.321 90.392 120.545C90.6788 120.75 91.0927 120.78 91.6336 120.635C91.819 120.585 92.0081 120.518 92.2007 120.433C92.4088 120.344 92.5741 120.25 92.6966 120.151L93.4884 122.921C93.2505 123.084 92.9389 123.25 92.5537 123.42C92.1726 123.605 91.7811 123.751 91.3793 123.859C90.6065 124.066 89.9326 124.147 89.3574 124.102C88.7781 124.042 88.2786 123.878 87.8588 123.609C87.4503 123.321 87.1102 122.948 86.8386 122.491C86.5629 122.018 86.3422 121.473 86.1765 120.855L84.8721 115.986L83.0175 116.483L82.2535 113.632L84.0849 113.141L83.2711 110.104L87.0035 109.104L87.8172 112.141L90.5295 111.414L91.2936 114.266L88.5812 114.993ZM101.46 113.256C101.299 112.653 100.967 112.187 100.465 111.858C99.9777 111.525 99.3557 111.46 98.5984 111.663C98.2274 111.762 97.904 111.915 97.628 112.121C97.3479 112.312 97.1189 112.539 96.9409 112.802C96.7629 113.065 96.6416 113.355 96.5771 113.67C96.5084 113.97 96.5057 114.269 96.5689 114.567L101.46 113.256ZM105.352 113.779C105.394 113.933 105.435 114.088 105.476 114.242C105.518 114.397 105.549 114.546 105.571 114.689L97.2025 116.931C97.3203 117.248 97.4918 117.516 97.7167 117.738C97.9571 117.955 98.2279 118.131 98.529 118.265C98.8414 118.381 99.1666 118.451 99.5047 118.476C99.8583 118.497 100.205 118.462 100.545 118.371C101.148 118.21 101.629 117.965 101.988 117.637C102.343 117.293 102.605 116.908 102.772 116.483L105.862 117.444C105.532 118.377 104.977 119.18 104.197 119.853C103.428 120.506 102.456 120.99 101.281 121.305C100.416 121.537 99.5616 121.625 98.7184 121.569C97.8712 121.498 97.0856 121.286 96.3616 120.933C95.649 120.561 95.0212 120.042 94.4783 119.376C93.9508 118.705 93.5566 117.883 93.2958 116.91C93.0432 115.967 92.9777 115.073 93.0993 114.229C93.2168 113.37 93.4833 112.602 93.8989 111.928C94.3103 111.238 94.8554 110.645 95.534 110.148C96.2126 109.651 96.9923 109.285 97.8733 109.049C98.7233 108.821 99.5431 108.759 100.333 108.862C101.118 108.95 101.838 109.196 102.493 109.6C103.148 110.004 103.718 110.556 104.204 111.254C104.704 111.948 105.087 112.789 105.352 113.779ZM116.8 116.749L115.11 110.443C115.023 110.119 114.91 109.818 114.769 109.541C114.644 109.26 114.491 109.027 114.309 108.844C114.123 108.646 113.898 108.515 113.633 108.454C113.379 108.373 113.083 108.378 112.743 108.469C112.403 108.56 112.12 108.71 111.894 108.92C111.68 109.11 111.519 109.343 111.411 109.621C111.303 109.898 111.245 110.204 111.235 110.538C111.236 110.852 111.28 111.171 111.367 111.496L113.044 117.755L109.219 118.78L106.126 107.235L109.812 106.248L110.24 107.847L110.287 107.835C110.36 107.55 110.473 107.263 110.627 106.973C110.793 106.664 111 106.385 111.248 106.136C111.512 105.883 111.807 105.655 112.133 105.452C112.459 105.248 112.824 105.093 113.225 104.985C113.998 104.778 114.692 104.741 115.308 104.875C115.923 105.008 116.453 105.255 116.898 105.616C117.354 105.958 117.728 106.396 118.02 106.931C118.328 107.461 118.559 108.012 118.712 108.584L120.625 115.724L116.8 116.749ZM132.244 112.611L131.84 111.104L131.794 111.116C131.58 111.803 131.169 112.402 130.561 112.913C129.964 113.404 129.279 113.753 128.506 113.96C127.641 114.192 126.822 114.229 126.051 114.071C125.28 113.913 124.58 113.621 123.952 113.193C123.335 112.745 122.804 112.183 122.358 111.508C121.912 110.832 121.581 110.093 121.366 109.289C121.15 108.485 121.069 107.687 121.122 106.895C121.186 106.082 121.375 105.336 121.69 104.655C122.02 103.971 122.473 103.377 123.051 102.874C123.644 102.368 124.358 102.002 125.192 101.779C126.042 101.551 126.804 101.521 127.479 101.688C128.153 101.855 128.704 102.088 129.132 102.388L129.179 102.375L127.247 95.1656L131.049 94.1469L135.745 111.673L132.244 112.611ZM130.552 106.852C130.453 106.481 130.286 106.137 130.052 105.819C129.833 105.496 129.562 105.229 129.241 105.017C128.934 104.801 128.588 104.654 128.203 104.575C127.817 104.496 127.408 104.514 126.975 104.63C126.527 104.751 126.156 104.941 125.861 105.202C125.567 105.463 125.341 105.764 125.184 106.104C125.022 106.429 124.927 106.786 124.899 107.175C124.886 107.559 124.929 107.937 125.029 108.308C125.128 108.678 125.281 109.035 125.489 109.377C125.708 109.699 125.971 109.968 126.277 110.184C126.583 110.4 126.929 110.548 127.315 110.627C127.7 110.706 128.117 110.685 128.565 110.565C128.998 110.449 129.362 110.261 129.656 110C129.951 109.738 130.176 109.438 130.334 109.097C130.506 108.753 130.607 108.386 130.635 107.998C130.679 107.605 130.652 107.223 130.552 106.852ZM144.814 101.64C144.652 101.037 144.32 100.571 143.818 100.242C143.331 99.9083 142.709 99.8431 141.952 100.046C141.581 100.145 141.257 100.298 140.982 100.505C140.701 100.696 140.472 100.923 140.294 101.186C140.116 101.449 139.995 101.738 139.931 102.054C139.862 102.354 139.859 102.652 139.922 102.95L144.814 101.64ZM148.706 102.162C148.747 102.317 148.788 102.471 148.83 102.626C148.871 102.78 148.903 102.929 148.925 103.072L140.556 105.315C140.674 105.631 140.845 105.9 141.07 106.121C141.311 106.338 141.581 106.514 141.882 106.649C142.195 106.764 142.52 106.834 142.858 106.86C143.212 106.881 143.559 106.846 143.899 106.755C144.501 106.593 144.982 106.348 145.342 106.02C145.697 105.677 145.958 105.292 146.126 104.866L149.216 105.827C148.886 106.76 148.331 107.563 147.55 108.236C146.781 108.889 145.809 109.373 144.635 109.688C143.769 109.92 142.915 110.008 142.072 109.952C141.225 109.881 140.439 109.669 139.715 109.317C139.002 108.945 138.375 108.425 137.832 107.759C137.304 107.089 136.91 106.267 136.649 105.293C136.397 104.35 136.331 103.457 136.453 102.613C136.57 101.753 136.837 100.986 137.252 100.311C137.664 99.6213 138.209 99.0281 138.887 98.5315C139.566 98.035 140.346 97.6687 141.227 97.4326C142.077 97.2048 142.897 97.1425 143.686 97.2457C144.472 97.3334 145.192 97.5794 145.847 97.9836C146.502 98.3879 147.072 98.9391 147.557 99.6373C148.058 100.331 148.441 101.173 148.706 102.162ZM161.312 104.822L160.909 103.315L160.862 103.327C160.649 104.014 160.238 104.613 159.629 105.124C159.032 105.615 158.347 105.964 157.574 106.171C156.709 106.403 155.891 106.44 155.119 106.282C154.348 106.125 153.649 105.832 153.021 105.404C152.404 104.956 151.872 104.395 151.426 103.719C150.98 103.043 150.649 102.304 150.434 101.5C150.219 100.697 150.137 99.8984 150.19 99.1057C150.254 98.2935 150.443 97.5471 150.758 96.8665C151.088 96.1817 151.542 95.5881 152.119 95.0854C152.712 94.5787 153.426 94.2135 154.261 93.9899C155.111 93.7621 155.873 93.7318 156.547 93.899C157.221 94.0662 157.772 94.2995 158.201 94.5989L158.247 94.5865L156.315 87.3768L160.117 86.3581L164.813 103.884L161.312 104.822ZM159.62 99.0635C159.521 98.6926 159.354 98.3481 159.12 98.0299C158.901 97.7075 158.631 97.4404 158.309 97.2285C158.002 97.0124 157.657 96.8649 157.271 96.786C156.885 96.7071 156.476 96.7257 156.044 96.8416C155.595 96.9617 155.224 97.1523 154.93 97.4134C154.635 97.6745 154.409 97.9752 154.252 98.3155C154.091 98.6404 153.996 98.9971 153.967 99.3857C153.954 99.7701 153.998 100.148 154.097 100.519C154.196 100.89 154.35 101.246 154.557 101.588C154.776 101.91 155.039 102.18 155.345 102.396C155.652 102.612 155.998 102.759 156.383 102.838C156.769 102.917 157.186 102.896 157.634 102.776C158.066 102.66 158.43 102.472 158.724 102.211C159.019 101.95 159.245 101.649 159.402 101.309C159.575 100.964 159.675 100.598 159.704 100.209C159.748 99.8163 159.72 99.4344 159.62 99.0635ZM60.2625 151.568L61.4427 155.973C61.5876 156.514 61.7978 156.897 62.0733 157.121C62.3601 157.326 62.7739 157.356 63.3148 157.211C63.5003 157.161 63.6893 157.094 63.8819 157.009C64.09 156.92 64.2553 156.826 64.3779 156.727L65.1696 159.496C64.9317 159.66 64.6202 159.826 64.2349 159.995C63.8538 160.18 63.4623 160.327 63.0605 160.434C62.2878 160.641 61.6138 160.723 61.0386 160.678C60.4594 160.618 59.9598 160.453 59.54 160.185C59.1315 159.897 58.7915 159.524 58.5199 159.067C58.2441 158.594 58.0234 158.049 57.8578 157.43L56.5533 152.562L54.6988 153.059L53.9347 150.208L55.7661 149.717L54.9524 146.68L58.6847 145.68L59.4985 148.717L62.2108 147.99L62.9748 150.842L60.2625 151.568ZM67.1362 142.72C67.2149 143.013 67.2276 143.308 67.1744 143.604C67.1325 143.88 67.0359 144.138 66.8847 144.377C66.7489 144.613 66.5564 144.821 66.3072 145.004C66.0735 145.183 65.8098 145.311 65.5161 145.39C64.8979 145.556 64.3264 145.494 63.8014 145.204C63.2723 144.898 62.9312 144.459 62.778 143.888C62.7034 143.609 62.6871 143.332 62.729 143.056C62.7668 142.764 62.8613 142.499 63.0125 142.259C63.1638 142.02 63.3562 141.811 63.59 141.633C63.8196 141.439 64.0889 141.3 64.398 141.217C64.6917 141.139 64.9844 141.118 65.2761 141.156C65.5833 141.19 65.8544 141.274 66.0896 141.41C66.3402 141.542 66.5548 141.724 66.7333 141.958C66.9232 142.172 67.0575 142.426 67.1362 142.72ZM67.1372 159.044L64.0438 147.499L67.8457 146.48L70.9391 158.025L67.1372 159.044ZM73.9968 157.206L69.3008 139.68L73.149 138.649L77.845 156.175L73.9968 157.206ZM80.9016 155.356L76.2056 137.83L80.0539 136.799L84.7499 154.324L80.9016 155.356ZM104.484 149.037L102.346 146.156L95.9939 147.858L95.6519 151.403L91.34 152.559L93.8272 134.301L97.6755 133.27L108.889 147.856L104.484 149.037ZM96.8558 138.185L96.2789 144.378L100.405 143.272L96.8558 138.185ZM117.641 145.511L117.212 143.912L117.166 143.924C117.097 144.224 116.978 144.521 116.808 144.815C116.654 145.105 116.445 145.376 116.181 145.629C115.933 145.878 115.638 146.106 115.296 146.313C114.97 146.517 114.606 146.672 114.204 146.78C113.431 146.987 112.737 147.024 112.122 146.891C111.522 146.753 110.994 146.514 110.538 146.172C110.093 145.811 109.719 145.373 109.415 144.858C109.123 144.323 108.898 143.763 108.741 143.175L106.827 136.035L110.653 135.01L112.33 141.269C112.417 141.594 112.523 141.897 112.648 142.178C112.773 142.459 112.928 142.699 113.114 142.898C113.315 143.092 113.543 143.23 113.796 143.311C114.046 143.377 114.348 143.362 114.704 143.267C115.368 143.089 115.804 142.707 116.012 142.121C116.235 141.532 116.257 140.904 116.079 140.24L114.408 134.004L118.21 132.985L121.303 144.53L117.641 145.511ZM136.225 139.364C136.527 140.492 136.628 141.517 136.527 142.439C136.426 143.36 136.154 144.17 135.712 144.868C135.274 145.582 134.665 146.184 133.885 146.675C133.125 147.176 132.235 147.564 131.215 147.837C130.195 148.111 129.103 148.238 127.938 148.218C126.789 148.195 125.742 147.995 124.796 147.619L125.97 144.398C126.659 144.743 127.367 144.943 128.094 144.996C128.84 145.061 129.538 145.007 130.187 144.833C131.299 144.535 132.04 144.022 132.408 143.294C132.792 142.562 132.853 141.709 132.592 140.735L132.406 140.039L132.336 140.058C132.105 140.617 131.725 141.116 131.197 141.556C130.669 141.996 130.018 142.319 129.246 142.526C128.365 142.762 127.543 142.817 126.78 142.69C126.013 142.547 125.317 142.27 124.693 141.857C124.085 141.441 123.562 140.91 123.124 140.265C122.682 139.605 122.353 138.873 122.138 138.07C121.923 137.266 121.841 136.468 121.894 135.675C121.947 134.883 122.13 134.146 122.445 133.466C122.775 132.781 123.236 132.185 123.829 131.678C124.418 131.156 125.145 130.779 126.011 130.547C126.737 130.352 127.472 130.313 128.215 130.429C128.959 130.544 129.614 130.857 130.181 131.368L130.228 131.355L129.83 129.872L133.423 128.909L136.225 139.364ZM131.335 135.581C131.232 135.194 131.063 134.842 130.828 134.524C130.609 134.201 130.341 133.942 130.023 133.746C129.702 133.534 129.35 133.396 128.969 133.332C128.587 133.269 128.18 133.295 127.747 133.411C127.315 133.527 126.949 133.708 126.65 133.954C126.367 134.195 126.145 134.478 125.984 134.803C125.822 135.128 125.727 135.485 125.699 135.873C125.67 136.262 125.71 136.657 125.818 137.059C125.921 137.445 126.082 137.8 126.301 138.122C126.52 138.444 126.783 138.714 127.089 138.93C127.391 139.13 127.728 139.272 128.098 139.355C128.479 139.419 128.886 139.392 129.319 139.276C129.752 139.16 130.117 138.98 130.416 138.734C130.726 138.469 130.962 138.174 131.123 137.849C131.3 137.52 131.402 137.161 131.431 136.772C131.475 136.38 131.443 135.982 131.335 135.581ZM145.424 138.067L144.554 134.821L149.399 127.311C149.698 126.817 149.917 126.336 150.056 125.868C150.196 125.4 150.199 124.919 150.067 124.424C149.909 123.837 149.598 123.415 149.132 123.159C148.661 122.888 148.117 122.835 147.499 123C146.85 123.174 146.379 123.549 146.086 124.125C145.804 124.68 145.724 125.34 145.845 126.102L141.976 126.592C141.845 125.733 141.871 124.931 142.052 124.187C142.249 123.438 142.566 122.765 143.002 122.168C143.434 121.555 143.975 121.038 144.623 120.615C145.284 120.173 146.015 119.845 146.819 119.63C147.576 119.427 148.337 119.33 149.102 119.341C149.867 119.351 150.583 119.491 151.252 119.759C151.92 120.027 152.501 120.434 152.995 120.981C153.505 121.524 153.874 122.22 154.102 123.07C154.259 123.657 154.325 124.211 154.299 124.732C154.268 125.237 154.168 125.727 153.997 126.204C153.842 126.676 153.635 127.137 153.374 127.588C153.125 128.019 152.861 128.454 152.581 128.894L149.686 133.297L156.386 131.502L157.293 134.887L145.424 138.067ZM160.411 134.051L159.541 130.806L164.386 123.296C164.685 122.802 164.903 122.321 165.043 121.853C165.183 121.384 165.186 120.903 165.054 120.409C164.896 119.821 164.585 119.4 164.118 119.144C163.648 118.872 163.104 118.819 162.486 118.985C161.837 119.159 161.366 119.533 161.072 120.109C160.791 120.665 160.711 121.324 160.832 122.086L156.963 122.576C156.832 121.717 156.858 120.915 157.039 120.171C157.236 119.422 157.553 118.749 157.989 118.152C158.421 117.539 158.962 117.022 159.61 116.6C160.271 116.158 161.002 115.829 161.806 115.614C162.563 115.411 163.324 115.315 164.089 115.325C164.854 115.335 165.57 115.475 166.239 115.743C166.907 116.011 167.488 116.419 167.982 116.965C168.492 117.508 168.861 118.204 169.089 119.054C169.246 119.641 169.312 120.195 169.285 120.716C169.255 121.221 169.155 121.712 168.984 122.188C168.829 122.66 168.622 123.122 168.361 123.572C168.112 124.003 167.848 124.439 167.568 124.878L164.673 129.281L171.373 127.486L172.28 130.871L160.411 134.051ZM174.528 124.38L171.602 113.461L175.497 112.417L178.423 123.336L174.528 124.38ZM179.691 126.773C179.774 127.082 179.791 127.392 179.742 127.704C179.704 127.995 179.604 128.271 179.441 128.53C179.29 128.769 179.09 128.98 178.841 129.163C178.596 129.361 178.319 129.501 178.01 129.584C177.701 129.667 177.392 129.691 177.085 129.658C176.793 129.62 176.52 129.528 176.265 129.381C176.011 129.233 175.786 129.045 175.592 128.815C175.398 128.586 175.26 128.317 175.177 128.007C175.098 127.714 175.078 127.421 175.116 127.129C175.165 126.818 175.263 126.535 175.41 126.28C175.557 126.026 175.755 125.807 176.004 125.624C176.249 125.426 176.527 125.285 176.836 125.203C177.145 125.12 177.455 125.103 177.766 125.152C178.073 125.186 178.354 125.276 178.609 125.423C178.875 125.551 179.1 125.739 179.282 125.988C179.476 126.218 179.613 126.479 179.691 126.773Z" fill="white"/>
</svg>
