<svg width="239" height="157" viewBox="0 0 239 157" fill="none" xmlns="http://www.w3.org/2000/svg">
<path d="M123.561 157C123.116 156.946 122.697 156.919 122.252 156.838C121.676 156.731 121.231 156.461 120.943 155.923C120.891 155.815 120.812 155.707 120.734 155.6C120.472 155.196 120.394 154.792 120.524 154.307C120.655 153.822 120.76 153.311 120.865 152.799C120.97 152.234 120.839 151.722 120.394 151.318C120.158 151.13 120.079 150.887 120.079 150.564C120.106 149.81 120.079 149.056 120.027 148.302C119.975 147.521 119.949 146.767 120.027 145.986C120.158 144.909 120.132 143.832 119.949 142.755C119.53 140.224 119.451 137.666 119.556 135.081C119.556 134.811 119.582 134.542 119.53 134.273C119.451 133.896 119.268 133.761 118.901 133.788C118.77 133.788 118.613 133.842 118.482 133.869C117.906 134.03 117.304 134.057 116.728 133.869C116.179 133.707 115.969 133.842 115.995 134.434C115.995 135.431 115.812 136.427 115.629 137.396C115.315 139.039 115.393 140.628 116.022 142.19C116.44 143.213 116.388 144.29 116.179 145.367C116.152 145.529 116.1 145.717 116.048 145.879C115.76 146.821 115.812 147.737 116.152 148.625C116.467 149.487 116.781 150.349 117.121 151.184C117.173 151.345 117.304 151.48 117.409 151.641C117.933 152.422 118.456 153.203 118.928 154.011C119.346 154.738 119.268 154.9 118.456 155.088C117.488 155.33 116.545 155.304 115.655 154.846C115.419 154.738 115.236 154.523 115.027 154.361C114.765 154.119 114.686 153.823 114.765 153.472C114.765 153.446 114.765 153.419 114.791 153.365C114.974 152.692 114.922 152.072 114.529 151.426C114.163 150.86 114.137 150.133 114.058 149.46C114.006 149.029 114.006 148.598 113.927 148.168C113.822 147.575 113.665 147.01 113.534 146.444C113.404 145.879 113.246 145.286 113.116 144.721C112.932 143.859 113.142 143.024 113.246 142.19C113.404 140.87 113.325 139.551 113.037 138.258C112.775 137.046 112.042 136.131 111.074 135.404C110.838 135.242 110.707 135.269 110.602 135.538C109.974 137.019 109.215 138.447 108.953 140.062C108.848 140.709 108.822 141.382 108.822 142.028C108.822 142.54 108.743 143.024 108.586 143.482C108.22 144.532 107.958 145.583 108.089 146.687C108.168 147.548 108.272 148.383 108.377 149.218C108.429 149.649 108.456 150.053 108.141 150.403C108.063 150.483 108.037 150.645 108.037 150.753C108.037 151.291 108.115 151.83 108.351 152.341C108.691 153.095 108.953 153.849 109.293 154.603C109.712 155.492 108.874 156.408 108.037 156.408C107.33 156.408 106.701 156.219 106.126 155.842C105.995 155.761 105.864 155.654 105.759 155.546C104.947 154.792 104.895 154.657 105.104 153.526C105.209 152.907 105.314 152.288 105.654 151.749C105.838 151.453 105.811 151.103 105.628 150.833C105.419 150.537 105.419 150.214 105.497 149.864C105.576 149.568 105.628 149.245 105.733 148.922C106.073 147.898 106.021 146.902 105.759 145.879C105.628 145.367 105.523 144.855 105.419 144.317C105.209 143.159 105.445 142.082 105.942 141.032C106.492 139.874 106.806 138.662 106.885 137.37C106.937 136.212 106.728 135.108 106.126 134.138C105.497 133.115 105.419 132.038 105.602 130.88C105.654 130.584 105.707 130.287 105.759 129.964C105.864 129.399 105.864 128.833 105.759 128.295C105.55 127.245 105.602 126.221 106.021 125.225C106.309 124.525 106.78 123.986 107.408 123.582C109.45 122.29 111.571 121.132 113.718 120.028C115.76 118.978 117.723 117.739 119.451 116.177C120.498 115.235 121.467 114.185 122.252 113C122.75 112.246 123.195 111.465 123.378 110.576C123.588 109.445 123.352 108.395 122.776 107.426C122.514 106.995 122.121 106.779 121.598 106.914C119.87 107.372 118.509 106.672 117.278 105.487C116.624 104.867 116.728 104.006 117.461 103.467C117.88 103.144 118.378 103.009 118.901 102.929C119.791 102.767 120.629 102.902 121.336 103.521C121.598 103.737 121.86 103.952 122.121 104.14C122.645 104.49 123.012 104.437 123.378 103.925C123.561 103.683 123.692 103.413 123.902 103.171C124.19 102.821 124.451 102.471 124.792 102.202C125.918 101.34 126.52 100.182 126.729 98.7818C126.755 98.5663 126.781 98.324 126.834 98.1086C126.965 97.3815 127.462 96.9507 128.195 97.0045C128.3 97.0045 128.378 97.0045 128.483 97.0315C129.164 97.2469 129.871 97.4354 130.578 97.5431C130.97 97.5969 131.206 97.8931 131.337 98.2701C131.52 98.8625 131.572 99.455 131.363 100.02C131.232 100.397 131.075 100.774 130.866 101.124C130.263 102.229 130.263 103.413 130.525 104.598C130.63 105.029 130.944 105.244 131.337 105.271C131.965 105.325 132.463 105.648 132.881 106.079C133.038 106.241 133.169 106.429 133.248 106.645C133.431 107.049 133.326 107.426 133.012 107.749C132.908 107.856 132.803 107.937 132.672 108.018C131.494 108.934 130.368 109.93 129.478 111.142C129.399 111.249 129.321 111.33 129.216 111.384C128.405 111.815 128.117 112.542 128.09 113.431C128.064 113.942 128.09 114.427 128.064 114.939C128.012 115.881 127.933 116.823 127.855 117.766C127.829 118.035 127.855 118.278 127.986 118.493C128.981 119.947 128.954 121.509 128.378 123.098C128.352 123.152 128.326 123.205 128.3 123.286C128.038 123.932 128.012 124.579 128.195 125.279C128.562 126.518 128.719 127.783 128.64 129.049C128.588 129.857 128.483 130.664 128.3 131.418C127.803 133.384 128.012 135.269 128.876 137.073C129.504 138.366 129.949 139.712 130.106 141.166C130.159 141.678 130.185 142.19 130.185 142.701C130.211 144.882 130.735 146.929 131.52 148.949C131.965 150.133 132.463 151.291 132.96 152.476C133.091 152.772 133.248 153.042 133.405 153.311C133.745 153.903 133.902 154.523 133.902 155.196C133.902 155.761 133.745 155.923 133.196 155.923C132.567 155.923 131.939 155.923 131.311 155.842C130.604 155.788 130.08 155.465 129.609 154.873C129.112 154.226 128.981 153.661 129.295 152.934C129.399 152.665 129.478 152.368 129.504 152.099C129.53 151.884 129.53 151.641 129.452 151.426C128.928 149.999 128.693 148.518 128.352 147.037C128.117 146.013 127.829 145.017 127.515 144.021C127.357 143.563 127.148 143.078 126.886 142.674C126.206 141.57 125.918 140.385 125.813 139.12C125.682 137.37 125.342 135.646 124.766 133.977C124.713 133.788 124.635 133.6 124.556 133.438C124.347 133.034 124.085 132.926 123.666 133.061C123.326 133.169 122.985 133.276 122.645 133.357C122.409 133.438 122.357 133.546 122.436 133.896C122.54 134.461 122.671 135 122.724 135.565C123.012 137.773 123.064 139.982 122.54 142.19C122.305 143.132 122.409 144.102 122.54 145.071C122.645 145.879 122.802 146.66 122.881 147.468C122.933 147.925 122.933 148.41 122.907 148.868C122.881 149.487 122.959 150.08 123.116 150.672C123.378 151.614 123.745 152.503 124.137 153.365C124.478 154.173 124.792 155.007 124.897 155.896C124.923 156.031 124.923 156.165 124.923 156.273C124.87 156.758 124.739 156.892 124.268 156.892C124.033 156.892 123.797 156.892 123.561 156.892C123.561 156.973 123.561 156.973 123.561 157Z" fill="white"/>
<path d="M227.068 76.2967C228.407 76.7735 230.147 77.1321 232.021 76.7735C232.959 76.5347 233.895 76.1769 234.698 75.7002C235.501 75.2234 236.171 74.6269 236.84 74.1493C237.375 73.5527 237.911 73.076 238.179 72.7182C238.447 72.3605 238.714 72.1217 238.714 72.1217C238.714 72.1217 237.911 71.6449 236.439 71.1673C235.1 70.8096 233.226 70.5708 231.352 71.0484C229.478 71.5251 227.871 72.5992 226.666 73.5536C226.398 73.7924 225.996 74.0304 225.863 74.2692V74.0304C226.264 72.0028 226.666 69.9751 226.8 68.0665C227.202 68.1855 227.738 68.3053 228.273 68.4243C229.612 68.6631 231.352 68.6631 233.092 68.0665C233.895 67.7087 234.698 67.2312 235.368 66.6354C236.037 66.0389 236.572 65.4423 236.974 64.8466C237.375 64.2501 237.777 63.6535 237.911 63.2957C238.179 62.938 238.179 62.5802 238.179 62.5802C238.179 62.5802 237.242 62.2224 235.904 62.1035C234.565 61.9845 232.825 62.1035 231.218 62.9388C229.612 63.7742 228.273 64.9664 227.336 66.0398C227.068 66.2786 226.935 66.5166 226.667 66.7553C226.8 64.8467 226.935 62.938 226.8 61.0302V60.6725C227.202 60.6725 227.738 60.7915 228.273 60.7915C229.477 60.7915 231.218 60.5527 232.69 59.5983C233.494 59.1216 234.029 58.525 234.565 57.9285C235.1 57.3319 235.502 56.6164 235.769 56.0199C236.037 55.4233 236.304 54.8268 236.439 54.35C236.572 53.9923 236.572 53.6345 236.572 53.6345C236.572 53.6345 235.635 53.5155 234.43 53.6345C233.226 53.7535 231.618 54.1112 230.146 55.1854C228.673 56.1397 227.737 57.5707 227.067 58.644C226.934 58.8828 226.799 59.1207 226.666 59.3595C226.532 57.4509 226.398 55.5422 226.131 53.6344C226.532 53.6344 226.934 53.5154 227.603 53.5154C228.808 53.2766 230.28 52.7999 231.485 51.7266C232.689 50.6533 233.359 49.1025 233.76 47.7905C233.894 47.1939 234.028 46.5973 234.028 46.1206V45.4051C234.028 45.4051 233.225 45.4051 232.021 45.7629C230.816 46.1206 229.477 46.7172 228.273 47.9094C227.068 49.1025 226.399 50.5335 225.997 51.6068C225.863 51.8456 225.863 51.9646 225.729 52.2034C225.461 50.7723 225.194 49.3405 224.926 48.0282C224.792 47.6705 224.792 47.3127 224.658 46.9549C225.059 46.8359 225.461 46.7161 225.997 46.5972C227.068 46.2394 228.406 45.5239 229.344 44.2118C229.879 43.6153 230.147 42.8997 230.415 42.1842C230.683 41.4687 230.683 40.7531 230.816 40.1566V38.6057C230.816 38.248 230.683 38.0092 230.683 38.0092C230.683 38.0092 229.88 38.1282 228.942 38.7247C228.005 39.2015 226.8 40.0368 225.863 41.3488C225.06 42.6609 224.659 44.092 224.391 45.285C224.391 45.404 224.391 45.6427 224.257 45.7617C223.722 44.0919 223.186 42.422 222.517 40.8711C222.785 40.7522 223.186 40.5134 223.721 40.2746C224.659 39.678 225.729 38.8435 226.265 37.5314C226.533 36.8159 226.667 36.1003 226.8 35.3849C226.8 34.6693 226.8 33.9538 226.667 33.3572C226.533 32.7607 226.399 32.1641 226.265 31.8064C226.265 31.5676 226.132 31.4486 226.132 31.3296V31.2107C226.132 31.2107 225.462 31.5684 224.659 32.165C223.856 32.8805 222.918 33.8348 222.383 35.1469C221.848 36.459 221.714 37.8901 221.848 39.0831V39.3219C221.313 38.1287 220.777 37.0554 220.242 35.8632C220.109 35.5055 219.841 35.2667 219.707 34.9089C219.975 34.7899 220.377 34.4322 220.778 34.0736C221.448 33.358 222.251 32.4037 222.652 30.9726C222.786 30.257 222.786 29.5415 222.652 28.826C222.652 28.4682 222.519 28.1105 222.384 27.8717C222.251 27.5139 222.116 27.2751 222.116 26.9174C221.848 26.3208 221.581 25.8441 221.447 25.4863C221.313 25.1285 221.179 25.0095 221.179 25.0095C221.179 25.0095 220.644 25.4863 220.108 26.2027C219.573 27.038 218.903 28.1113 218.769 29.5424C218.635 30.258 218.635 30.9735 218.769 31.57C218.769 32.1666 218.902 32.7631 219.037 33.3588C218.367 32.2855 217.564 31.2123 216.761 30.1381C216.628 30.0192 216.628 29.8994 216.493 29.7804V29.6614C216.627 29.4226 216.895 29.1847 217.163 28.8261C217.698 28.1105 218.234 26.9174 218.1 25.4863C218.1 24.7708 217.832 24.0552 217.565 23.4587C217.297 22.8621 216.896 22.2656 216.494 21.6699C216.092 21.1931 215.691 20.7155 215.423 20.4767C215.155 20.238 214.888 20 214.888 20C214.888 20 214.486 20.5966 214.353 21.4311C214.219 21.9078 214.085 22.3854 214.085 22.9819V24.8906C214.218 26.0837 214.754 27.157 215.156 28.1113C214.888 27.8725 214.754 27.6345 214.486 27.3957C214.085 27.038 213.683 26.5604 213.282 26.2026L213.148 26.0836C213.015 25.8448 213.015 25.3681 212.747 25.0103C212.345 24.056 211.542 22.8638 210.203 22.0284C208.864 21.1931 207.258 20.8353 206.053 20.8353C205.518 20.8353 204.982 20.9543 204.714 20.9543C204.446 21.0732 204.179 21.0732 204.179 21.0732C204.179 21.0732 204.313 21.1922 204.447 21.431C204.715 21.6698 204.982 21.9078 205.25 22.2664C205.92 22.9819 206.857 23.8172 207.927 24.5328C208.998 25.2485 210.337 25.7259 211.274 26.0837C211.676 26.2027 212.077 26.3225 212.479 26.4415L212.612 26.5604C213.014 26.9182 213.415 27.3958 213.817 27.7536C214.085 27.9923 214.218 28.2303 214.486 28.4691C213.683 27.8725 212.479 27.276 211.273 27.276C210.604 27.157 209.934 27.276 209.399 27.395C208.864 27.5139 208.328 27.7527 207.927 27.9915C207.124 28.4683 206.588 28.8269 206.588 28.8269L206.856 29.0656C207.124 29.1846 207.391 29.4234 207.793 29.5424C208.195 29.7812 208.596 29.9002 209.132 30.1389C209.667 30.3777 210.337 30.4967 210.873 30.6157C212.212 30.8545 213.416 30.7347 214.487 30.4967C215.022 30.3777 215.425 30.2579 215.692 30.2579H215.825C215.959 30.3769 215.959 30.4967 216.093 30.6157C216.897 31.689 217.566 32.6433 218.236 33.7167C217.834 33.3589 217.298 33.0012 216.763 32.6434C216.228 32.2856 215.558 32.0468 214.755 31.9279C213.283 31.5701 211.944 31.9279 211.007 32.1666C210.07 32.5244 209.401 32.8822 209.401 32.8822C209.401 32.8822 209.535 33.0012 209.669 33.121C209.937 33.2399 210.204 33.4787 210.606 33.8365C210.74 33.9555 211.008 34.0753 211.276 34.1943C211.544 34.3133 211.811 34.4331 212.079 34.671C212.614 34.9098 213.284 35.1478 213.953 35.3866C215.292 35.7443 216.63 35.7443 217.701 35.6253C218.236 35.5064 218.772 35.5064 219.04 35.3866C219.174 35.7443 219.442 35.9831 219.575 36.3409C220.111 37.4142 220.647 38.6074 221.182 39.7995C221.182 39.6805 221.048 39.6805 221.048 39.5607C220.245 38.7254 219.04 37.7719 217.568 37.4141C216.095 37.0564 214.756 37.1754 213.686 37.4141C212.615 37.6529 211.946 38.0107 211.946 38.0107L213.285 39.2038C213.686 39.5616 214.222 39.9194 214.757 40.2771C215.292 40.6349 215.962 40.8737 216.631 41.1125C217.97 41.5892 219.443 41.5892 220.513 41.5892C221.048 41.5892 221.584 41.4702 221.852 41.3504C222.522 42.9013 222.923 44.5711 223.458 46.241C223.325 46.122 223.325 46.0022 223.19 45.8832C222.387 44.9289 221.182 43.9746 219.71 43.4979C218.237 43.0212 216.765 43.0212 215.56 43.2591C214.489 43.4979 213.686 43.7359 213.686 43.7359C213.686 43.7359 213.82 43.8548 213.954 44.0936C214.222 44.3324 214.489 44.6902 214.892 45.048C215.293 45.4057 215.829 45.7635 216.364 46.2411C216.899 46.5988 217.569 46.9566 218.238 47.3144C219.711 47.9109 221.183 48.0299 222.388 47.9109C222.923 47.9109 223.459 47.792 223.86 47.792C223.994 48.1497 223.994 48.5075 224.128 48.8653C224.396 50.2963 224.664 51.6084 224.932 53.0404C224.798 52.9214 224.664 52.6826 224.53 52.5636C223.727 51.6093 222.522 50.536 221.05 49.9395C219.577 49.3431 217.971 49.343 216.766 49.4628C215.561 49.5818 214.758 49.8206 214.758 49.8206C214.758 49.8206 214.891 49.9395 215.026 50.2973C215.294 50.5361 215.561 50.8939 215.963 51.3706C216.766 52.206 217.971 53.1594 219.444 53.8759C220.916 54.4724 222.522 54.7112 223.728 54.5914C224.263 54.5914 224.799 54.4724 225.2 54.4724C225.468 56.3811 225.602 58.1698 225.602 60.0785C225.468 59.8397 225.334 59.6017 225.2 59.3629C224.397 58.2896 223.193 57.0964 221.72 56.5001C220.114 55.7845 218.507 55.7845 217.169 55.9035C215.964 56.0225 215.027 56.2613 215.027 56.2613C215.027 56.2613 215.16 56.3802 215.295 56.738C215.563 56.9768 215.83 57.4535 216.232 57.8113C216.634 58.2881 217.17 58.7656 217.705 59.2424C218.24 59.7191 218.91 60.1967 219.713 60.5545C221.319 61.27 222.926 61.5088 224.13 61.5088C224.8 61.5088 225.201 61.5088 225.603 61.3898V61.7476C225.603 63.6562 225.469 65.445 225.335 67.3536C225.201 67.1148 225.067 66.8769 224.8 66.5183C223.997 65.445 222.926 64.133 221.185 63.4173C219.579 62.7018 217.838 62.5819 216.499 62.7018C215.16 62.8207 214.224 62.9405 214.224 62.9405C214.224 62.9405 214.357 63.1793 214.492 63.4173C214.625 63.7751 215.027 64.1328 215.429 64.6104C215.831 65.0871 216.367 65.5647 216.902 66.1613C217.437 66.638 218.106 67.2346 218.909 67.5923C220.516 68.4277 222.122 68.6656 223.461 68.7854H225.067C224.799 70.8131 224.532 72.7216 223.996 74.6303V74.869C223.862 74.6302 223.728 74.2725 223.461 73.9147C222.791 72.7216 221.587 71.4095 219.846 70.5749C218.24 69.7396 216.366 69.6206 214.893 69.6206C213.554 69.6206 212.484 69.7396 212.484 69.7396C212.484 69.7396 212.618 69.9784 212.752 70.2164C212.886 70.5741 213.287 70.9319 213.555 71.5284C213.957 72.0052 214.358 72.6017 215.028 73.1983C215.563 73.7948 216.232 74.2716 217.035 74.7491C218.641 75.7035 220.382 76.0612 221.854 76.1802H223.461C222.926 78.2078 222.256 80.3553 221.453 82.3828C221.319 82.0251 221.185 81.6673 220.918 81.3095C220.65 80.713 220.115 79.9974 219.579 79.4009C219.044 78.8044 218.24 78.2078 217.437 77.7311C215.696 76.7768 213.822 76.538 212.35 76.419H210.609H209.94C209.94 76.419 210.341 77.2543 211.011 78.3276C211.412 78.9242 211.814 79.5207 212.35 80.1164C212.885 80.713 213.554 81.3095 214.357 81.9053C215.963 82.9786 217.838 83.4561 219.31 83.6941C219.98 83.813 220.515 83.813 220.916 83.813C220.515 84.8863 219.979 85.9596 219.444 87.1528C219.042 87.9882 218.641 88.8227 218.105 89.6581C217.971 89.3003 217.837 88.9425 217.703 88.4649C217.435 87.7494 217.034 87.0339 216.364 86.3184C215.829 85.6028 215.159 85.0063 214.222 84.4098C212.481 83.3364 210.474 82.8589 209.001 82.7399C207.529 82.5011 206.324 82.5011 206.324 82.5011C206.324 82.5011 206.458 82.7399 206.592 83.0977C206.726 83.4554 206.994 83.933 207.395 84.5287C208.065 85.7219 209.136 87.2719 210.742 88.4649C212.348 89.6579 214.222 90.3735 215.829 90.6115C216.498 90.7304 217.033 90.7304 217.435 90.8503C217.033 91.4468 216.632 92.1624 216.23 92.7589C215.695 93.7132 215.026 94.5477 214.356 95.5021C214.088 95.8598 213.687 96.3374 213.419 96.6952C213.285 96.3374 213.151 95.8598 213.017 95.3831C212.749 94.6675 212.348 93.8322 211.813 93.1166C211.278 92.401 210.608 91.5657 209.805 90.97C208.065 89.7769 206.057 89.0614 204.451 88.7035C203.648 88.5846 202.978 88.4648 202.577 88.3458C202.042 88.2268 201.774 88.2268 201.774 88.2268C201.774 88.2268 202.042 89.1811 202.577 90.4933C203.112 91.8054 204.049 93.4752 205.656 94.9063C207.262 96.3374 209.136 97.1728 210.743 97.5304C211.412 97.6494 211.947 97.7692 212.483 97.8882C212.483 98.0072 212.35 98.0072 212.35 98.127C210.877 99.7968 209.405 101.467 207.799 103.018L207.665 103.137C207.665 102.66 207.531 102.182 207.397 101.705C207.263 100.99 206.862 100.036 206.326 99.2002C205.791 98.3649 205.121 97.5304 204.318 96.8149C202.578 95.3838 200.57 94.5484 198.964 94.0717C198.161 93.8329 197.492 93.595 196.957 93.4752C196.422 93.3562 196.154 93.3562 196.154 93.3562C196.154 93.3562 196.154 93.595 196.287 94.0717C196.421 94.5485 196.555 95.145 196.822 95.8605C197.09 96.5761 197.357 97.4114 197.893 98.2459C198.295 99.0812 198.831 99.9157 199.634 100.751C201.106 102.302 203.114 103.375 204.721 103.852C205.39 104.091 205.925 104.21 206.461 104.21C206.06 104.568 205.658 104.925 205.257 105.283C204.319 105.999 203.516 106.714 202.58 107.43C201.91 107.907 201.241 108.384 200.572 108.861C200.572 108.384 200.439 107.907 200.439 107.31C200.171 105.64 199.368 103.613 197.762 102.062C196.155 100.392 194.013 99.4375 192.407 98.7218C190.801 98.0061 189.596 97.7675 189.596 97.7675C189.596 97.7675 189.596 98.0063 189.729 98.483C189.729 98.9598 189.863 99.5563 189.997 100.392C190.399 101.942 190.935 103.97 192.406 105.759C193.745 107.548 195.887 108.741 197.493 109.337C198.163 109.576 198.698 109.695 199.1 109.814L198.297 110.411L197.627 110.887L196.824 111.364L195.877 111.244L194.405 112.08L193.601 112.557L192.798 112.914L191.326 113.75L192.53 115.538L194.137 114.703L195.743 113.75L197.349 112.795L198.821 111.841L200.427 110.887L201.23 110.291C201.23 110.768 201.23 111.245 201.364 111.842C201.498 113.512 201.899 115.659 203.372 117.448C204.711 119.237 206.986 120.311 208.86 120.788C209.798 121.026 210.734 121.145 211.269 121.264C211.939 121.383 212.341 121.383 212.341 121.383C212.341 121.383 212.742 119.952 212.609 118.282C212.475 116.493 211.939 114.346 210.199 112.676C208.593 111.006 206.318 110.171 204.577 109.694C203.908 109.456 203.372 109.337 202.837 109.218C203.506 108.741 204.176 108.263 204.844 107.667C205.782 106.951 206.718 106.236 207.521 105.4L208.86 104.207C208.994 104.684 209.128 105.161 209.262 105.758C209.797 107.309 210.734 109.217 212.475 110.529C213.412 111.244 214.349 111.722 215.42 111.96C216.491 112.317 217.562 112.436 218.499 112.436H220.908C221.577 112.317 221.845 112.317 221.845 112.317C221.845 112.317 221.845 111.96 221.712 111.482C221.578 111.005 221.444 110.289 221.177 109.455C220.642 107.904 219.57 105.996 217.562 104.922C215.688 103.729 213.278 103.371 211.538 103.252C210.869 103.252 210.334 103.133 209.798 103.133L209.931 103.014C211.672 101.344 213.144 99.6742 214.617 97.8855C214.617 97.7665 214.751 97.7665 214.751 97.6467C214.884 98.0045 215.152 98.4821 215.554 99.0778C216.357 100.39 217.696 101.941 219.703 102.895C221.711 103.849 223.987 103.849 225.861 103.492C227.736 103.253 229.075 102.656 229.075 102.656C229.075 102.656 228.941 102.418 228.807 101.941C228.673 101.464 228.271 100.867 227.869 100.271C226.931 98.9588 225.46 97.5277 223.451 96.8123C222.38 96.4545 221.309 96.3356 220.238 96.2157C219.167 96.2157 218.231 96.2157 217.293 96.3347C216.758 96.4537 216.222 96.4537 215.687 96.5735C215.955 96.0968 216.357 95.7382 216.625 95.2614C217.294 94.3071 217.964 93.3528 218.499 92.3985C218.9 91.683 219.302 91.0865 219.703 90.3709C219.971 90.7287 220.373 91.0865 220.774 91.5641C221.845 92.6374 223.452 93.7106 225.46 94.1882C227.468 94.6649 229.744 94.1882 231.484 93.4726C232.287 93.1148 233.09 92.7571 233.492 92.5183C234.027 92.2795 234.295 92.0415 234.295 92.0415C234.295 92.0415 233.76 91.0872 232.554 90.1329C231.35 89.1786 229.742 88.1053 227.601 87.8664C226.53 87.7475 225.459 87.8664 224.523 87.9854C223.585 88.1044 222.649 88.3432 221.846 88.582C221.31 88.7009 220.908 88.9397 220.506 89.0587C221.042 88.2234 221.444 87.3889 221.846 86.4346C222.381 85.3613 222.917 84.1681 223.318 83.0948C223.586 83.3336 224.121 83.6914 224.657 84.0492C225.862 84.7647 227.602 85.6 229.61 85.6C230.681 85.6 231.618 85.3612 232.555 85.1233C233.493 84.7655 234.296 84.4078 235.099 83.9302C236.571 83.0948 237.374 82.1414 237.374 82.1414C237.374 82.1414 237.241 81.9026 236.839 81.6646C236.438 81.4258 235.902 81.068 235.367 80.7103C234.028 79.9947 232.288 79.3982 230.28 79.637C229.208 79.756 228.272 79.9947 227.334 80.2335C226.397 80.5913 225.594 80.9491 224.925 81.3068C224.524 81.5456 224.122 81.7836 223.854 81.9034C224.657 79.8758 225.327 77.7283 225.728 75.5817C225.997 75.8188 226.533 76.0576 227.068 76.2964L227.068 76.2967Z" fill="white"/>
<path d="M40.4291 100.944C38.823 102.614 38.02 104.642 37.752 106.193C37.6185 106.789 37.6185 107.386 37.6185 107.744C36.949 107.267 36.2794 106.789 35.6109 106.312C34.6734 105.597 33.8703 104.881 32.9338 104.166C32.5323 103.808 32.1307 103.45 31.7292 103.093C32.2643 102.974 32.8003 102.854 33.4698 102.735C35.0759 102.258 37.0844 101.184 38.5569 99.6338C39.36 98.7985 39.8959 97.964 40.2975 97.1286C40.699 96.2932 41.1005 95.4587 41.3685 94.7432C41.6365 94.0277 41.77 93.4312 41.9036 92.9544C42.0371 92.4777 42.0371 92.2389 42.0371 92.2389C42.0371 92.2389 41.7691 92.2389 41.234 92.3579C40.699 92.4768 40.0295 92.5967 39.2264 92.9544C37.6203 93.4312 35.6118 94.2665 33.8723 95.6976C33.0692 96.4131 32.3997 97.2484 31.8647 98.0829C31.3296 98.9183 31.0616 99.7528 30.7936 100.588C30.6601 101.185 30.5256 101.661 30.5256 102.019L30.3921 101.9C28.786 100.349 27.1791 98.6796 25.8409 97.0097C25.8409 96.8907 25.7073 96.8907 25.7073 96.7709C26.1089 96.7709 26.7784 96.6519 27.4479 96.4131C29.054 96.0554 31.0625 95.22 32.535 93.789C34.1411 92.358 34.9442 90.688 35.6137 89.376C36.2832 88.0639 36.4168 87.1095 36.4168 87.1095C36.4168 87.1095 36.1488 87.1095 35.6137 87.2285C35.0787 87.3474 34.4091 87.3475 33.7396 87.5862C32.1335 87.944 30.125 88.5406 28.3855 89.8527C27.5824 90.4493 26.9129 91.1648 26.3779 91.9993C25.8428 92.7148 25.4404 93.5501 25.1733 94.2658C25.0398 94.7425 24.9053 95.2201 24.7718 95.5779C24.5038 95.2201 24.1022 94.7425 23.8343 94.3847C23.1647 93.4304 22.4952 92.5959 21.9602 91.6416C21.4205 91.0442 21.0189 90.4476 20.6174 89.8519C21.0189 89.8519 21.6884 89.733 22.2235 89.6131C23.6961 89.3744 25.7038 88.7778 27.3107 87.4666C28.9168 86.2735 29.8543 84.7234 30.6573 83.5304C30.9253 82.9339 31.1924 82.4571 31.4604 82.0994C31.5939 81.7416 31.7284 81.5028 31.7284 81.5028C31.7284 81.5028 30.6573 81.5028 29.0513 81.7416C27.5787 81.9804 25.571 82.3381 23.8305 83.4114C23.0274 84.008 22.2244 84.6045 21.6884 85.3201C21.1534 86.0356 20.7509 86.7511 20.3494 87.4666C20.2159 87.9434 19.9479 88.302 19.9479 88.6597C19.4128 87.8244 19.0103 86.9899 18.6088 86.1545C18.0738 85.0812 17.5378 84.0079 17.1362 82.8147C17.5378 82.8147 18.0738 82.8147 18.7423 82.6957C20.2149 82.5768 22.089 81.9802 23.6951 80.9069C24.4982 80.4302 25.1677 79.7138 25.7028 79.1181C26.2378 78.5215 26.7738 77.925 27.0418 77.3293C27.8449 76.256 28.1128 75.4207 28.1128 75.4207H27.4433H25.7028C24.0976 75.538 22.2235 75.7768 20.4839 76.7311C19.6809 77.2078 18.8778 77.8044 18.3418 78.4009C17.8068 78.9975 17.2708 79.713 17.0028 80.3095C16.8693 80.6673 16.6013 81.0251 16.4677 81.3828C15.6647 79.3552 14.9952 77.3276 14.4601 75.1802H16.0662C17.4053 75.0612 19.2793 74.7035 20.8854 73.7491C21.6885 73.2724 22.358 72.6758 22.893 72.1983C23.4281 71.6017 23.9641 71.0052 24.3656 70.5284C24.7671 70.0517 25.0351 69.5741 25.1687 69.2163C25.3022 68.8586 25.4367 68.7396 25.4367 68.7396C25.4367 68.7396 24.4991 68.6206 23.0275 68.6206C21.6885 68.6206 19.8145 68.7396 18.0747 69.5749C16.3342 70.4103 15.2631 71.7215 14.4601 72.9147C14.3266 73.2725 14.0586 73.5113 13.9251 73.869V73.6302C13.5235 71.7216 13.122 69.6941 12.854 67.7854C13.2555 67.7854 13.7915 67.9044 14.4601 67.7854C15.7992 67.7854 17.5388 67.4277 19.0113 66.5923C19.8144 66.2346 20.4839 65.638 21.0189 65.1613C21.554 64.6845 22.09 64.088 22.4915 63.6104C22.893 63.1336 23.161 62.6561 23.429 62.4173C23.5625 62.0595 23.697 61.9405 23.697 61.9405C23.697 61.9405 22.7595 61.7017 21.4214 61.7017C20.0824 61.7017 18.3427 61.7017 16.7356 62.4173C15.1295 63.1328 13.924 64.4449 13.121 65.5183C12.9875 65.7571 12.7195 66.1148 12.5859 66.3536C12.4524 64.445 12.3179 62.6562 12.3179 60.7476V60.3898C12.7195 60.3898 13.2555 60.5088 13.7905 60.5088C14.9951 60.5088 16.7356 60.27 18.2081 59.5545C19.0112 59.1967 19.6807 58.7191 20.2157 58.2424C20.7508 57.7656 21.2868 57.2881 21.6883 56.8113C22.0898 56.3346 22.3578 55.976 22.6258 55.738C22.7593 55.4992 22.8938 55.2613 22.8938 55.2613C22.8938 55.2613 22.0907 55.0225 20.7517 54.9035C19.5471 54.7845 17.8067 54.7845 16.2005 55.5C14.5944 56.2156 13.3889 57.2889 12.7202 58.3629C12.5867 58.6017 12.4522 58.8397 12.3187 59.0785C12.3187 57.1698 12.4522 55.3811 12.7202 53.4724C13.1218 53.4724 13.5233 53.5914 14.1928 53.5914C15.3974 53.5914 17.0045 53.4724 18.477 52.8759C19.9496 52.2793 21.1541 51.206 21.9573 50.3706C22.3588 50.0128 22.6268 49.6551 22.8948 49.2973C23.1628 49.0585 23.1628 48.8206 23.1628 48.8206C23.1628 48.8206 22.3597 48.5818 21.1552 48.4628C19.9506 48.3438 18.3435 48.3438 16.871 48.9395C15.2649 49.5361 14.1939 50.6094 13.3907 51.5636C13.2572 51.8024 13.1227 51.9214 12.9892 52.0404C13.2572 50.6093 13.3907 49.2972 13.7922 47.8653C13.9258 47.5075 13.9258 47.1497 14.0602 46.792C14.4618 46.9109 14.8633 46.9109 15.5328 46.9109C16.7374 46.9109 18.2099 46.9109 19.6824 46.3144C20.3519 46.0756 21.0215 45.7178 21.5565 45.2411C22.0916 44.8833 22.6275 44.4057 23.0291 44.048C23.4306 43.6902 23.6986 43.3324 23.9666 43.0936C24.2346 42.8548 24.2346 42.7359 24.2346 42.7359C24.2346 42.7359 23.4315 42.4971 22.3605 42.2591C21.2895 42.0203 19.6834 42.0203 18.2109 42.4979C16.7383 42.9746 15.5338 44.0488 14.7306 44.8832C14.5971 45.0022 14.4626 45.122 14.4626 45.241C14.8641 43.5712 15.4001 42.0203 16.0687 40.3504C16.3367 40.4694 16.8718 40.4694 17.4078 40.5892C18.4788 40.7082 19.9515 40.5892 21.2894 40.1125C21.9589 39.8737 22.6285 39.5159 23.1635 39.2771C23.6985 38.9193 24.2345 38.5616 24.6361 38.2038C25.0376 37.846 25.3056 37.6073 25.5736 37.3685C25.7071 37.2495 25.7071 37.1297 25.8416 37.1297C25.8416 37.0107 25.9751 37.0107 25.9751 37.0107C25.9751 37.0107 25.3056 36.6529 24.2346 36.4141C23.1635 36.1754 21.8254 36.0564 20.3529 36.4141C18.8803 36.8909 17.6758 37.7262 16.8726 38.5607C16.8726 38.6797 16.7391 38.6797 16.7391 38.7995C17.2742 37.6064 17.6766 36.533 18.3452 35.3409C18.4787 34.9831 18.7467 34.7443 18.8803 34.3866C19.1483 34.5055 19.6833 34.6253 20.2193 34.6253C21.2904 34.7443 22.6284 34.7443 23.9676 34.3866C24.6371 34.2676 25.3066 33.9098 25.8416 33.671C26.1096 33.552 26.3767 33.4322 26.6447 33.1943C26.9127 33.0753 27.0462 32.9555 27.3142 32.8365C27.7157 32.5977 27.9837 32.3598 28.2517 32.121C28.5197 32.002 28.5197 31.8822 28.5197 31.8822C28.5197 31.8822 27.8502 31.5244 26.9136 31.1666C25.9761 30.8089 24.638 30.5701 23.1654 30.9279C22.4959 31.0468 21.8263 31.4046 21.1578 31.6434C20.6227 32.0012 20.0867 32.3589 19.6852 32.7167C20.3547 31.6434 21.0242 30.5701 21.8273 29.6157C21.9608 29.4967 21.9608 29.3769 22.0953 29.2579H22.2288C22.4968 29.3769 22.8983 29.4967 23.4334 29.4967C24.3709 29.7355 25.709 29.8545 27.048 29.6157C27.7175 29.4967 28.2526 29.3769 28.7885 29.1389C29.3236 29.02 29.7261 28.7812 30.1276 28.5424C30.5291 28.3036 30.7971 28.1846 31.0651 28.0656C31.3331 27.9467 31.3331 27.8269 31.3331 27.8269C31.3331 27.8269 30.798 27.3501 29.994 26.9915C29.5925 26.7527 29.0565 26.5148 28.5215 26.395C27.9864 26.276 27.3169 26.1562 26.6474 26.276C25.4428 26.395 24.2383 26.9915 23.4344 27.4691C23.7024 27.2303 23.8359 26.9923 24.1039 26.7536C24.5054 26.3958 24.9069 25.9182 25.3085 25.5604L25.442 25.4415C25.71 25.3225 26.1115 25.2027 26.6466 25.0837C27.7176 24.7259 28.9222 24.2483 29.9932 23.5328C31.1978 22.8173 32.0008 21.982 32.6703 21.2664C33.0718 20.9086 33.3398 20.6698 33.4734 20.431C33.7414 20.1922 33.7414 20.0732 33.7414 20.0732C33.7414 20.0732 33.6078 20.0732 33.2063 19.9543C32.9383 19.9543 32.4033 19.8353 31.8673 19.8353C30.6627 19.8353 29.1902 20.0741 27.7177 21.0284C26.3786 21.8637 25.5756 23.056 25.174 24.0103C24.906 24.4871 24.906 24.8457 24.7724 25.0836L24.6389 25.2026C24.2374 25.5604 23.8358 26.038 23.4343 26.3957C23.1663 26.6345 23.0328 26.8725 22.7648 27.1113C23.1663 26.2759 23.5679 25.0837 23.8358 23.8906C23.9694 23.175 23.9694 22.5785 23.8358 21.9819C23.8358 21.3854 23.7023 20.9086 23.5679 20.4311C23.2999 19.5957 23.0328 19 23.0328 19C23.0328 19 22.8993 19.119 22.4977 19.4767C22.2297 19.7155 21.8282 20.1923 21.4267 20.6699C21.0252 21.1466 20.6236 21.7432 20.3556 22.4587C20.0876 23.0552 19.8206 23.7708 19.8206 24.4863C19.6871 25.9174 20.2221 26.9915 20.7581 27.8261C21.0261 28.1838 21.2932 28.5416 21.4276 28.6614V28.7804C21.2941 28.8994 21.2941 29.0192 21.1596 29.1381C20.3566 30.2114 19.6871 31.2847 18.884 32.3588C19.0176 31.8821 19.152 31.2855 19.152 30.57C19.2855 29.9735 19.2855 29.2579 19.152 28.5424C19.0185 27.1113 18.349 26.0372 17.813 25.2027C17.2779 24.3673 16.7419 24.0095 16.7419 24.0095C16.7419 24.0095 16.6084 24.2483 16.4739 24.4863C16.3404 24.8441 16.0724 25.3216 15.8044 25.9174C15.6709 26.1561 15.5364 26.5139 15.5364 26.8717C15.4029 27.2295 15.4029 27.5872 15.2684 27.826C15.1349 28.5415 15.1349 29.2571 15.2684 29.9726C15.5364 31.4036 16.3395 32.3579 17.1425 33.0736C17.544 33.4313 17.9456 33.6701 18.2135 33.9089C18.08 34.2667 17.812 34.5055 17.6785 34.8632C17.1434 36.0564 16.4739 37.1297 16.0724 38.3219V38.0831C16.0724 37.0098 16.0724 35.5778 15.5373 34.1469C15.0023 32.8348 14.0648 31.7616 13.2617 31.165C12.4587 30.4494 11.7891 30.2107 11.7891 30.2107V30.3296C11.7891 30.4486 11.6556 30.5684 11.6556 30.8064C11.5221 31.1642 11.3876 31.7607 11.2541 32.3572C11.1206 32.9538 11.1206 33.6693 11.1206 34.3849C11.2541 35.1004 11.3886 35.8159 11.6556 36.5314C12.3251 37.8435 13.3962 38.7979 14.1993 39.2746C14.7344 39.5134 15.1368 39.7513 15.4039 39.8711C14.7344 41.541 14.1993 43.0918 13.6634 44.7617C13.6634 44.6427 13.6633 44.5229 13.5298 44.285C13.3963 43.0919 12.9948 41.6609 12.0572 40.3488C11.2542 39.0367 10.0496 38.2023 8.97857 37.7247C8.04105 37.248 7.23802 37.0092 7.23802 37.0092C7.23802 37.0092 7.23802 37.248 7.10449 37.6057V39.1566C7.10449 39.7532 7.23802 40.4687 7.50602 41.1842C7.77401 41.8997 8.04107 42.6153 8.57706 43.2118C9.51458 44.5239 10.8527 45.1204 11.9237 45.5972C12.4588 45.8359 12.9948 45.9549 13.2628 45.9549C13.1292 46.3127 13.1292 46.6705 12.9948 47.0282C12.5932 48.4593 12.3252 49.8911 12.1917 51.2034C12.1917 50.9646 12.0582 50.8456 11.9237 50.6068C11.5222 49.4137 10.8527 47.9827 9.64811 46.9094C8.44354 45.7163 7.10442 45.1206 5.89987 44.7629C4.82136 45.3611 4.01737 45.3611 4.01737 45.3611V46.0766C4.01737 46.4344 4.1509 47.0309 4.28537 47.7464C4.68689 48.9396 5.35642 50.4905 6.69543 51.6826C7.90001 52.7559 9.37252 53.2335 10.5771 53.4714C11.1121 53.5904 11.6481 53.5904 12.0496 53.5904C11.7817 55.499 11.6481 57.4077 11.5146 59.3155C11.3811 59.0767 11.2466 58.8387 11.1131 58.6C10.4435 57.5275 9.37252 56.2155 8.03343 55.1422C6.56085 54.1879 4.95475 53.7111 3.74923 53.5913C2.54465 53.4724 1.60716 53.5913 1.60716 53.5913C1.60716 53.5913 1.60716 53.8301 1.74069 54.3069C1.87422 54.6646 2.14222 55.2612 2.41021 55.9767C2.67821 56.5733 3.07973 57.2888 3.61479 57.8853C4.14985 58.4819 4.81937 59.0784 5.48887 59.5552C6.96144 60.5095 8.56755 60.7483 9.90645 60.7483C10.576 60.7483 10.9775 60.7483 11.379 60.6293V60.9871C11.379 62.8957 11.379 64.8044 11.5126 66.7122C11.379 66.4734 11.111 66.2354 10.843 65.9966C9.90551 64.9233 8.56743 63.7302 6.96139 62.8956C5.35529 62.0603 3.61474 61.9413 2.2756 62.0603C0.93656 62.1793 0 62.537 0 62.537C0 62.537 0.133529 62.7758 0.267995 63.2526C0.670454 63.6103 1.07198 64.2069 1.47444 64.8034C1.87597 65.4 2.41196 65.9966 3.08055 66.5923C3.75007 67.1888 4.55312 67.6656 5.35615 68.0233C7.09669 68.7389 8.83643 68.6199 10.1753 68.3811C10.8448 68.2621 11.2464 68.1423 11.6479 68.0233C11.9159 70.0509 12.183 72.0785 12.5854 73.9872V74.226C12.3174 73.9872 12.0504 73.7492 11.7824 73.5104C10.5778 72.5561 8.9707 71.4828 7.09657 71.0052C5.35603 70.5285 3.61558 70.7672 2.2774 71.125C0.938353 71.4828 0.00179278 72.0793 0.00179278 72.0793C0.00179278 72.0793 0.135323 72.3181 0.536852 72.6759C0.804847 73.0337 1.3399 73.6302 1.87589 74.107C2.41095 74.7035 3.21494 75.1803 4.01797 75.6578C4.82102 76.1346 5.75851 76.4932 6.69505 76.7311C8.56912 77.0889 10.4433 76.7311 11.6479 76.2544C12.1829 76.0156 12.7189 75.7776 13.1204 75.6578C13.6555 77.8044 14.325 79.9518 14.9945 81.9795C14.7265 81.7407 14.325 81.6218 13.9235 81.383C13.2539 81.0252 12.4509 80.6674 11.5143 80.3097C10.5768 79.9519 9.64027 79.7131 8.56929 79.7131C6.56168 79.5941 4.68766 80.1899 3.48214 80.7864C2.81262 81.1442 2.27756 81.5019 2.00957 81.7407C1.60804 81.9795 1.34005 82.2183 1.34005 82.2183C1.34005 82.2183 2.27756 83.1726 3.61565 84.0071C4.28517 84.4839 5.22176 84.8425 6.15935 85.2002C7.09686 85.558 8.16695 85.677 9.1044 85.677C11.112 85.677 12.8526 84.8416 14.0572 84.1261C14.5923 83.7684 14.9947 83.5296 15.3962 83.1718C15.7978 84.3649 16.3338 85.4383 16.8688 86.5116C17.2703 87.3469 17.6719 88.3004 18.2079 89.1357C17.8063 89.0167 17.4048 88.7779 16.8688 88.6589C16.0658 88.4201 15.1283 88.1822 14.1917 88.0624C13.2542 87.9434 12.1841 87.8236 11.1131 87.9434C8.97098 88.1822 7.23142 89.1365 6.16025 90.2099C4.95474 91.2832 4.41875 92.2375 4.41875 92.2375C4.41875 92.2375 4.68675 92.4763 5.2218 92.7142C5.75686 92.953 6.42638 93.3108 7.22941 93.6686C8.83552 94.2651 11.1111 94.7419 13.2531 94.3841C15.2608 93.9073 16.8678 92.7142 17.9389 91.76C18.3405 91.2832 18.742 90.9246 19.01 90.5669C19.4115 91.2824 19.813 91.879 20.2146 92.5945C20.7496 93.5488 21.4191 94.5031 22.0886 95.4574C22.3566 95.9341 22.7582 96.2927 23.0262 96.7694C22.6246 96.6505 22.0886 96.6505 21.4201 96.5307C20.4825 96.4117 19.546 96.4117 18.475 96.4117C17.4039 96.4117 16.3329 96.6505 15.262 97.0082C13.1199 97.7238 11.6474 99.1548 10.8444 100.467C10.4429 101.063 10.0413 101.779 9.90688 102.137C9.63888 102.613 9.63888 102.852 9.63888 102.852C9.63888 102.852 10.9779 103.449 12.8519 103.688C14.726 103.926 17.0015 103.926 19.0102 103.091C21.0178 102.137 22.2232 100.586 23.1598 99.2737C23.5614 98.797 23.8294 98.3194 23.9629 97.8426C23.9629 97.9616 24.0964 97.9616 24.0964 98.0814C25.569 99.8702 27.0415 101.54 28.7822 103.21L28.9157 103.329C28.3807 103.329 27.8447 103.329 27.1752 103.448C25.3011 103.567 23.0256 104.044 21.1515 105.118C19.2774 106.311 18.0728 108.1 17.5368 109.65C17.2688 110.486 17.1353 111.201 17.0018 111.678C16.8682 112.155 16.8682 112.513 16.8682 112.513C16.8682 112.513 17.2698 112.632 17.8058 112.632C18.4753 112.751 19.2783 112.751 20.2149 112.632C21.1524 112.632 22.2225 112.394 23.2936 112.156C24.3646 111.798 25.3012 111.32 26.2386 110.725C27.9791 109.294 28.9157 107.504 29.4516 105.954C29.7196 105.357 29.8532 104.881 29.8532 104.403C30.2547 104.761 30.6562 105.238 31.1922 105.596C32.1297 106.312 32.9327 107.147 33.8693 107.863C34.5388 108.339 35.2083 108.936 35.8769 109.414C35.3418 109.532 34.8058 109.652 34.1363 109.89C32.3958 110.487 30.1201 111.321 28.514 112.872C26.9079 114.542 26.2384 116.689 26.1049 118.478C25.9714 120.267 26.3729 121.579 26.3729 121.579C26.3729 121.579 26.7744 121.579 27.4439 121.46C28.1134 121.341 28.9165 121.221 29.853 120.983C31.7271 120.507 34.0026 119.433 35.3418 117.644C36.6808 115.855 37.2158 113.708 37.3494 112.038C37.3494 111.441 37.4829 110.845 37.4829 110.487L38.2859 111.083L39.8921 112.037L41.3646 112.991L42.9707 113.946L44.5768 114.899L46.1829 115.734L47.3875 113.946L45.7814 113.11L45.1147 112.514L44.3116 112.038L42.8391 111.202L41.3665 110.248L40.5634 109.771L39.8939 109.295L39.0909 108.698C39.6259 108.579 40.1619 108.459 40.697 108.221C42.4375 107.625 44.4452 106.432 45.7841 104.643C47.1232 102.854 47.7917 100.825 48.1932 99.2755C48.3268 98.4401 48.4612 97.8444 48.4612 97.3668C48.4612 96.8901 48.5948 96.6513 48.5948 96.6513C48.5948 96.6513 47.3902 96.8901 45.7831 97.6056C44.177 98.3203 42.1694 99.2747 40.4289 100.945L40.4291 100.944Z" fill="white"/>
<path d="M45.5946 36.3H49.7696L58.3446 49.45H58.3946V36.3H61.5446V54H57.5446L48.7946 40.425H48.7446V54H45.5946V36.3ZM67.6171 49.05C67.7171 49.95 68.0671 50.65 68.6671 51.15C69.2671 51.65 69.9921 51.9 70.8421 51.9C71.5921 51.9 72.2171 51.75 72.7171 51.45C73.2338 51.1333 73.6838 50.7417 74.0671 50.275L76.2171 51.9C75.5171 52.7667 74.7338 53.3833 73.8671 53.75C73.0004 54.1167 72.0921 54.3 71.1421 54.3C70.2421 54.3 69.3921 54.15 68.5921 53.85C67.7921 53.55 67.1004 53.125 66.5171 52.575C65.9338 52.025 65.4671 51.3667 65.1171 50.6C64.7838 49.8167 64.6171 48.95 64.6171 48C64.6171 47.05 64.7838 46.1917 65.1171 45.425C65.4671 44.6417 65.9338 43.975 66.5171 43.425C67.1004 42.875 67.7921 42.45 68.5921 42.15C69.3921 41.85 70.2421 41.7 71.1421 41.7C71.9754 41.7 72.7338 41.85 73.4171 42.15C74.1171 42.4333 74.7088 42.85 75.1921 43.4C75.6921 43.95 76.0754 44.6333 76.3421 45.45C76.6254 46.25 76.7671 47.175 76.7671 48.225V49.05H67.6171ZM73.7671 46.8C73.7504 45.9167 73.4754 45.225 72.9421 44.725C72.4088 44.2083 71.6671 43.95 70.7171 43.95C69.8171 43.95 69.1004 44.2083 68.5671 44.725C68.0504 45.2417 67.7338 45.9333 67.6171 46.8H73.7671ZM78.1726 44.55V42H80.6476V38.525H83.6476V42H86.9476V44.55H83.6476V49.8C83.6476 50.4 83.7559 50.875 83.9726 51.225C84.2059 51.575 84.6559 51.75 85.3226 51.75C85.5892 51.75 85.8809 51.725 86.1976 51.675C86.5142 51.6083 86.7642 51.5083 86.9476 51.375V53.9C86.6309 54.05 86.2392 54.15 85.7726 54.2C85.3226 54.2667 84.9226 54.3 84.5726 54.3C83.7726 54.3 83.1142 54.2083 82.5976 54.025C82.0976 53.8583 81.6976 53.6 81.3976 53.25C81.1142 52.8833 80.9142 52.4333 80.7976 51.9C80.6976 51.3667 80.6476 50.75 80.6476 50.05V44.55H78.1726ZM92.3138 43.675H92.3638C92.5971 43.175 93.0054 42.725 93.5888 42.325C94.1888 41.9083 94.9554 41.7 95.8888 41.7C96.6888 41.7 97.3638 41.8333 97.9138 42.1C98.4804 42.3667 98.9388 42.7167 99.2888 43.15C99.6388 43.5833 99.8888 44.0833 100.039 44.65C100.189 45.2167 100.264 45.8083 100.264 46.425V54H97.2638V47.925C97.2638 47.5917 97.2471 47.225 97.2138 46.825C97.1804 46.4083 97.0888 46.025 96.9388 45.675C96.8054 45.3083 96.5888 45.0083 96.2888 44.775C95.9888 44.525 95.5804 44.4 95.0638 44.4C94.5638 44.4 94.1388 44.4833 93.7888 44.65C93.4554 44.8167 93.1721 45.0417 92.9388 45.325C92.7221 45.6083 92.5638 45.9333 92.4638 46.3C92.3638 46.6667 92.3138 47.05 92.3138 47.45V54H89.3138V35.1H92.3138V43.675ZM106.069 49.05C106.169 49.95 106.519 50.65 107.119 51.15C107.719 51.65 108.444 51.9 109.294 51.9C110.044 51.9 110.669 51.75 111.169 51.45C111.686 51.1333 112.136 50.7417 112.519 50.275L114.669 51.9C113.969 52.7667 113.186 53.3833 112.319 53.75C111.453 54.1167 110.544 54.3 109.594 54.3C108.694 54.3 107.844 54.15 107.044 53.85C106.244 53.55 105.553 53.125 104.969 52.575C104.386 52.025 103.919 51.3667 103.569 50.6C103.236 49.8167 103.069 48.95 103.069 48C103.069 47.05 103.236 46.1917 103.569 45.425C103.919 44.6417 104.386 43.975 104.969 43.425C105.553 42.875 106.244 42.45 107.044 42.15C107.844 41.85 108.694 41.7 109.594 41.7C110.428 41.7 111.186 41.85 111.869 42.15C112.569 42.4333 113.161 42.85 113.644 43.4C114.144 43.95 114.528 44.6333 114.794 45.45C115.078 46.25 115.219 47.175 115.219 48.225V49.05H106.069ZM112.219 46.8C112.203 45.9167 111.928 45.225 111.394 44.725C110.861 44.2083 110.119 43.95 109.169 43.95C108.269 43.95 107.553 44.2083 107.019 44.725C106.503 45.2417 106.186 45.9333 106.069 46.8H112.219ZM118.025 42H121.025V43.9H121.075C121.408 43.2 121.883 42.6583 122.5 42.275C123.116 41.8917 123.825 41.7 124.625 41.7C124.808 41.7 124.983 41.7167 125.15 41.75C125.333 41.7833 125.516 41.825 125.7 41.875V44.775C125.45 44.7083 125.2 44.6583 124.95 44.625C124.716 44.575 124.483 44.55 124.25 44.55C123.55 44.55 122.983 44.6833 122.55 44.95C122.133 45.2 121.808 45.4917 121.575 45.825C121.358 46.1583 121.208 46.4917 121.125 46.825C121.058 47.1583 121.025 47.4083 121.025 47.575V54H118.025V42ZM127.792 35.1H130.792V54H127.792V35.1ZM141.736 52.35H141.661C141.227 53.0333 140.677 53.5333 140.011 53.85C139.344 54.15 138.611 54.3 137.811 54.3C137.261 54.3 136.719 54.225 136.186 54.075C135.669 53.925 135.202 53.7 134.786 53.4C134.386 53.1 134.061 52.725 133.811 52.275C133.561 51.825 133.436 51.3 133.436 50.7C133.436 50.05 133.552 49.5 133.786 49.05C134.019 48.5833 134.327 48.2 134.711 47.9C135.111 47.5833 135.569 47.3333 136.086 47.15C136.602 46.9667 137.136 46.8333 137.686 46.75C138.252 46.65 138.819 46.5917 139.386 46.575C139.952 46.5417 140.486 46.525 140.986 46.525H141.736V46.2C141.736 45.45 141.477 44.8917 140.961 44.525C140.444 44.1417 139.786 43.95 138.986 43.95C138.352 43.95 137.761 44.0667 137.211 44.3C136.661 44.5167 136.186 44.8167 135.786 45.2L134.211 43.625C134.877 42.9417 135.652 42.45 136.536 42.15C137.436 41.85 138.361 41.7 139.311 41.7C140.161 41.7 140.877 41.8 141.461 42C142.044 42.1833 142.527 42.425 142.911 42.725C143.294 43.025 143.586 43.375 143.786 43.775C144.002 44.1583 144.152 44.55 144.236 44.95C144.336 45.35 144.394 45.7417 144.411 46.125C144.427 46.4917 144.436 46.8167 144.436 47.1V54H141.736V52.35ZM141.561 48.625H140.936C140.519 48.625 140.052 48.6417 139.536 48.675C139.019 48.7083 138.527 48.7917 138.061 48.925C137.611 49.0417 137.227 49.225 136.911 49.475C136.594 49.7083 136.436 50.0417 136.436 50.475C136.436 50.7583 136.494 51 136.611 51.2C136.744 51.3833 136.911 51.5417 137.111 51.675C137.311 51.8083 137.536 51.9083 137.786 51.975C138.036 52.025 138.286 52.05 138.536 52.05C139.569 52.05 140.327 51.8083 140.811 51.325C141.311 50.825 141.561 50.15 141.561 49.3V48.625ZM147.663 42H150.513V43.925H150.563C150.847 43.325 151.28 42.8083 151.863 42.375C152.447 41.925 153.238 41.7 154.238 41.7C155.038 41.7 155.713 41.8333 156.263 42.1C156.83 42.3667 157.288 42.7167 157.638 43.15C157.988 43.5833 158.238 44.0833 158.388 44.65C158.538 45.2167 158.613 45.8083 158.613 46.425V54H155.613V47.925C155.613 47.5917 155.597 47.225 155.563 46.825C155.53 46.4083 155.438 46.025 155.288 45.675C155.155 45.3083 154.938 45.0083 154.638 44.775C154.338 44.525 153.93 44.4 153.413 44.4C152.913 44.4 152.488 44.4833 152.138 44.65C151.805 44.8167 151.522 45.0417 151.288 45.325C151.072 45.6083 150.913 45.9333 150.813 46.3C150.713 46.6667 150.663 47.05 150.663 47.45V54H147.663V42ZM171.519 52.2H171.469C171.036 52.9333 170.452 53.4667 169.719 53.8C168.986 54.1333 168.194 54.3 167.344 54.3C166.411 54.3 165.577 54.1417 164.844 53.825C164.127 53.4917 163.511 53.0417 162.994 52.475C162.477 51.9083 162.086 51.2417 161.819 50.475C161.552 49.7083 161.419 48.8833 161.419 48C161.419 47.1167 161.561 46.2917 161.844 45.525C162.127 44.7583 162.519 44.0917 163.019 43.525C163.536 42.9583 164.152 42.5167 164.869 42.2C165.586 41.8667 166.369 41.7 167.219 41.7C167.786 41.7 168.286 41.7583 168.719 41.875C169.152 41.9917 169.536 42.1417 169.869 42.325C170.202 42.5083 170.486 42.7083 170.719 42.925C170.952 43.125 171.144 43.325 171.294 43.525H171.369V35.1H174.369V54H171.519V52.2ZM164.419 48C164.419 48.4667 164.494 48.9167 164.644 49.35C164.811 49.7833 165.044 50.1667 165.344 50.5C165.661 50.8333 166.036 51.1 166.469 51.3C166.902 51.5 167.394 51.6 167.944 51.6C168.494 51.6 168.986 51.5 169.419 51.3C169.852 51.1 170.219 50.8333 170.519 50.5C170.836 50.1667 171.069 49.7833 171.219 49.35C171.386 48.9167 171.469 48.4667 171.469 48C171.469 47.5333 171.386 47.0833 171.219 46.65C171.069 46.2167 170.836 45.8333 170.519 45.5C170.219 45.1667 169.852 44.9 169.419 44.7C168.986 44.5 168.494 44.4 167.944 44.4C167.394 44.4 166.902 44.5 166.469 44.7C166.036 44.9 165.661 45.1667 165.344 45.5C165.044 45.8333 164.811 46.2167 164.644 46.65C164.494 47.0833 164.419 47.5333 164.419 48ZM184.166 45.325C183.583 44.5083 182.799 44.1 181.816 44.1C181.416 44.1 181.024 44.2 180.641 44.4C180.258 44.6 180.066 44.925 180.066 45.375C180.066 45.7417 180.224 46.0083 180.541 46.175C180.858 46.3417 181.258 46.4833 181.741 46.6C182.224 46.7167 182.741 46.8417 183.291 46.975C183.858 47.0917 184.383 47.2833 184.866 47.55C185.349 47.8 185.749 48.15 186.066 48.6C186.383 49.05 186.541 49.6667 186.541 50.45C186.541 51.1667 186.383 51.775 186.066 52.275C185.766 52.7583 185.366 53.15 184.866 53.45C184.383 53.75 183.833 53.9667 183.216 54.1C182.599 54.2333 181.983 54.3 181.366 54.3C180.433 54.3 179.574 54.1667 178.791 53.9C178.008 53.6333 177.308 53.15 176.691 52.45L178.691 50.575C179.074 51.0083 179.483 51.3667 179.916 51.65C180.366 51.9167 180.908 52.05 181.541 52.05C181.758 52.05 181.983 52.025 182.216 51.975C182.449 51.925 182.666 51.8417 182.866 51.725C183.066 51.6083 183.224 51.4667 183.341 51.3C183.474 51.1167 183.541 50.9083 183.541 50.675C183.541 50.2583 183.383 49.95 183.066 49.75C182.749 49.55 182.349 49.3917 181.866 49.275C181.383 49.1417 180.858 49.025 180.291 48.925C179.741 48.8083 179.224 48.6333 178.741 48.4C178.258 48.15 177.858 47.8083 177.541 47.375C177.224 46.9417 177.066 46.3417 177.066 45.575C177.066 44.9083 177.199 44.3333 177.466 43.85C177.749 43.35 178.116 42.9417 178.566 42.625C179.016 42.3083 179.533 42.075 180.116 41.925C180.699 41.775 181.291 41.7 181.891 41.7C182.691 41.7 183.483 41.8417 184.266 42.125C185.049 42.3917 185.683 42.8583 186.166 43.525L184.166 45.325ZM48.3534 70.3H59.7784V73.15H51.5034V77.8H59.3034V80.65H51.5034V88H48.3534V70.3ZM62.4839 76H65.4839V88H62.4839V76ZM62.0589 71.925C62.0589 71.4417 62.2339 71.025 62.5839 70.675C62.9506 70.3083 63.4089 70.125 63.9589 70.125C64.5089 70.125 64.9672 70.3 65.3339 70.65C65.7172 70.9833 65.9089 71.4083 65.9089 71.925C65.9089 72.4417 65.7172 72.875 65.3339 73.225C64.9672 73.5583 64.5089 73.725 63.9589 73.725C63.4089 73.725 62.9506 73.55 62.5839 73.2C62.2339 72.8333 62.0589 72.4083 62.0589 71.925ZM68.978 69.1H71.978V88H68.978V69.1ZM75.2972 76H78.1472V77.875H78.1972C78.4638 77.3083 78.8888 76.8083 79.4722 76.375C80.0722 75.925 80.8722 75.7 81.8722 75.7C83.7555 75.7 85.0055 76.4417 85.6222 77.925C86.0555 77.1583 86.5972 76.6 87.2472 76.25C87.8972 75.8833 88.6722 75.7 89.5722 75.7C90.3722 75.7 91.0472 75.8333 91.5972 76.1C92.1472 76.3667 92.5888 76.7333 92.9222 77.2C93.2722 77.6667 93.5222 78.2167 93.6722 78.85C93.8222 79.4667 93.8972 80.1333 93.8972 80.85V88H90.8972V81.2C90.8972 80.8333 90.8638 80.4833 90.7972 80.15C90.7305 79.8 90.6138 79.5 90.4472 79.25C90.2805 78.9833 90.0555 78.775 89.7722 78.625C89.4888 78.475 89.1222 78.4 88.6722 78.4C88.2055 78.4 87.8055 78.4917 87.4722 78.675C87.1555 78.8417 86.8888 79.075 86.6722 79.375C86.4722 79.6583 86.3222 79.9917 86.2222 80.375C86.1388 80.7417 86.0972 81.1167 86.0972 81.5V88H83.0972V80.85C83.0972 80.1 82.9388 79.5083 82.6222 79.075C82.3055 78.625 81.7805 78.4 81.0472 78.4C80.5472 78.4 80.1222 78.4833 79.7722 78.65C79.4388 78.8167 79.1555 79.0417 78.9222 79.325C78.7055 79.6083 78.5472 79.9333 78.4472 80.3C78.3472 80.6667 78.2972 81.05 78.2972 81.45V88H75.2972V76ZM104.848 70.3H116.273V73.15H107.998V77.8H115.798V80.65H107.998V88H104.848V70.3ZM121.328 83.05C121.428 83.95 121.778 84.65 122.378 85.15C122.978 85.65 123.703 85.9 124.553 85.9C125.303 85.9 125.928 85.75 126.428 85.45C126.945 85.1333 127.395 84.7417 127.778 84.275L129.928 85.9C129.228 86.7667 128.445 87.3833 127.578 87.75C126.711 88.1167 125.803 88.3 124.853 88.3C123.953 88.3 123.103 88.15 122.303 87.85C121.503 87.55 120.811 87.125 120.228 86.575C119.645 86.025 119.178 85.3667 118.828 84.6C118.495 83.8167 118.328 82.95 118.328 82C118.328 81.05 118.495 80.1917 118.828 79.425C119.178 78.6417 119.645 77.975 120.228 77.425C120.811 76.875 121.503 76.45 122.303 76.15C123.103 75.85 123.953 75.7 124.853 75.7C125.686 75.7 126.445 75.85 127.128 76.15C127.828 76.4333 128.42 76.85 128.903 77.4C129.403 77.95 129.786 78.6333 130.053 79.45C130.336 80.25 130.478 81.175 130.478 82.225V83.05H121.328ZM127.478 80.8C127.461 79.9167 127.186 79.225 126.653 78.725C126.12 78.2083 125.378 77.95 124.428 77.95C123.528 77.95 122.811 78.2083 122.278 78.725C121.761 79.2417 121.445 79.9333 121.328 80.8H127.478ZM139.683 79.325C139.1 78.5083 138.317 78.1 137.333 78.1C136.933 78.1 136.542 78.2 136.158 78.4C135.775 78.6 135.583 78.925 135.583 79.375C135.583 79.7417 135.742 80.0083 136.058 80.175C136.375 80.3417 136.775 80.4833 137.258 80.6C137.742 80.7167 138.258 80.8417 138.808 80.975C139.375 81.0917 139.9 81.2833 140.383 81.55C140.867 81.8 141.267 82.15 141.583 82.6C141.9 83.05 142.058 83.6667 142.058 84.45C142.058 85.1667 141.9 85.775 141.583 86.275C141.283 86.7583 140.883 87.15 140.383 87.45C139.9 87.75 139.35 87.9667 138.733 88.1C138.117 88.2333 137.5 88.3 136.883 88.3C135.95 88.3 135.092 88.1667 134.308 87.9C133.525 87.6333 132.825 87.15 132.208 86.45L134.208 84.575C134.592 85.0083 135 85.3667 135.433 85.65C135.883 85.9167 136.425 86.05 137.058 86.05C137.275 86.05 137.5 86.025 137.733 85.975C137.967 85.925 138.183 85.8417 138.383 85.725C138.583 85.6083 138.742 85.4667 138.858 85.3C138.992 85.1167 139.058 84.9083 139.058 84.675C139.058 84.2583 138.9 83.95 138.583 83.75C138.267 83.55 137.867 83.3917 137.383 83.275C136.9 83.1417 136.375 83.025 135.808 82.925C135.258 82.8083 134.742 82.6333 134.258 82.4C133.775 82.15 133.375 81.8083 133.058 81.375C132.742 80.9417 132.583 80.3417 132.583 79.575C132.583 78.9083 132.717 78.3333 132.983 77.85C133.267 77.35 133.633 76.9417 134.083 76.625C134.533 76.3083 135.05 76.075 135.633 75.925C136.217 75.775 136.808 75.7 137.408 75.7C138.208 75.7 139 75.8417 139.783 76.125C140.567 76.3917 141.2 76.8583 141.683 77.525L139.683 79.325ZM142.992 78.55V76H145.467V72.525H148.467V76H151.767V78.55H148.467V83.8C148.467 84.4 148.575 84.875 148.792 85.225C149.025 85.575 149.475 85.75 150.142 85.75C150.409 85.75 150.7 85.725 151.017 85.675C151.334 85.6083 151.584 85.5083 151.767 85.375V87.9C151.45 88.05 151.059 88.15 150.592 88.2C150.142 88.2667 149.742 88.3 149.392 88.3C148.592 88.3 147.934 88.2083 147.417 88.025C146.917 87.8583 146.517 87.6 146.217 87.25C145.934 86.8833 145.734 86.4333 145.617 85.9C145.517 85.3667 145.467 84.75 145.467 84.05V78.55H142.992ZM154.183 76H157.183V88H154.183V76ZM153.758 71.925C153.758 71.4417 153.933 71.025 154.283 70.675C154.65 70.3083 155.108 70.125 155.658 70.125C156.208 70.125 156.666 70.3 157.033 70.65C157.416 70.9833 157.608 71.4083 157.608 71.925C157.608 72.4417 157.416 72.875 157.033 73.225C156.666 73.5583 156.208 73.725 155.658 73.725C155.108 73.725 154.65 73.55 154.283 73.2C153.933 72.8333 153.758 72.4083 153.758 71.925ZM159.002 76H162.277L165.477 84.4H165.527L168.752 76H171.827L167.102 88H163.902L159.002 76ZM181.091 86.35H181.016C180.583 87.0333 180.033 87.5333 179.366 87.85C178.699 88.15 177.966 88.3 177.166 88.3C176.616 88.3 176.074 88.225 175.541 88.075C175.024 87.925 174.558 87.7 174.141 87.4C173.741 87.1 173.416 86.725 173.166 86.275C172.916 85.825 172.791 85.3 172.791 84.7C172.791 84.05 172.908 83.5 173.141 83.05C173.374 82.5833 173.683 82.2 174.066 81.9C174.466 81.5833 174.924 81.3333 175.441 81.15C175.958 80.9667 176.491 80.8333 177.041 80.75C177.608 80.65 178.174 80.5917 178.741 80.575C179.308 80.5417 179.841 80.525 180.341 80.525H181.091V80.2C181.091 79.45 180.833 78.8917 180.316 78.525C179.799 78.1417 179.141 77.95 178.341 77.95C177.708 77.95 177.116 78.0667 176.566 78.3C176.016 78.5167 175.541 78.8167 175.141 79.2L173.566 77.625C174.233 76.9417 175.008 76.45 175.891 76.15C176.791 75.85 177.716 75.7 178.666 75.7C179.516 75.7 180.233 75.8 180.816 76C181.399 76.1833 181.883 76.425 182.266 76.725C182.649 77.025 182.941 77.375 183.141 77.775C183.358 78.1583 183.508 78.55 183.591 78.95C183.691 79.35 183.749 79.7417 183.766 80.125C183.783 80.4917 183.791 80.8167 183.791 81.1V88H181.091V86.35ZM180.916 82.625H180.291C179.874 82.625 179.408 82.6417 178.891 82.675C178.374 82.7083 177.883 82.7917 177.416 82.925C176.966 83.0417 176.583 83.225 176.266 83.475C175.949 83.7083 175.791 84.0417 175.791 84.475C175.791 84.7583 175.849 85 175.966 85.2C176.099 85.3833 176.266 85.5417 176.466 85.675C176.666 85.8083 176.891 85.9083 177.141 85.975C177.391 86.025 177.641 86.05 177.891 86.05C178.924 86.05 179.683 85.8083 180.166 85.325C180.666 84.825 180.916 84.15 180.916 83.3V82.625ZM187.069 69.1H190.069V88H187.069V69.1Z" fill="white"/>
<path d="M91.6352 10.108H93.1172V11.4H93.1552C93.5605 10.9187 94.0292 10.545 94.5612 10.279C95.1058 10.013 95.7012 9.88 96.3472 9.88C97.0438 9.88 97.6772 10.0003 98.2472 10.241C98.8298 10.469 99.3238 10.792 99.7292 11.21C100.135 11.628 100.451 12.122 100.679 12.692C100.907 13.262 101.021 13.8827 101.021 14.554C101.021 15.2253 100.907 15.846 100.679 16.416C100.451 16.986 100.135 17.48 99.7292 17.898C99.3365 18.316 98.8678 18.6453 98.3232 18.886C97.7785 19.114 97.1958 19.228 96.5752 19.228C95.7772 19.228 95.0742 19.057 94.4662 18.715C93.8708 18.3603 93.4338 17.9297 93.1552 17.423H93.1172V23.332H91.6352V10.108ZM93.1172 14.554C93.1172 15.0227 93.1868 15.4597 93.3262 15.865C93.4782 16.2577 93.6935 16.606 93.9722 16.91C94.2508 17.2013 94.5802 17.4357 94.9602 17.613C95.3528 17.7777 95.7898 17.86 96.2712 17.86C96.7525 17.86 97.1832 17.7777 97.5632 17.613C97.9558 17.4357 98.2915 17.2013 98.5702 16.91C98.8488 16.606 99.0578 16.2577 99.1972 15.865C99.3492 15.4597 99.4252 15.0227 99.4252 14.554C99.4252 14.0853 99.3492 13.6547 99.1972 13.262C99.0578 12.8567 98.8488 12.5083 98.5702 12.217C98.2915 11.913 97.9558 11.6787 97.5632 11.514C97.1832 11.3367 96.7525 11.248 96.2712 11.248C95.7898 11.248 95.3528 11.3367 94.9602 11.514C94.5802 11.6787 94.2508 11.913 93.9722 12.217C93.6935 12.5083 93.4782 12.8567 93.3262 13.262C93.1868 13.6547 93.1172 14.0853 93.1172 14.554ZM103.212 11.248C103.668 10.7793 104.207 10.4373 104.827 10.222C105.461 9.994 106.1 9.88 106.746 9.88C108.064 9.88 109.014 10.1903 109.596 10.811C110.179 11.4317 110.47 12.3753 110.47 13.642V17.461C110.47 17.7143 110.483 17.9803 110.508 18.259C110.534 18.525 110.565 18.772 110.603 19H109.178C109.128 18.7973 109.096 18.5757 109.083 18.335C109.083 18.0817 109.083 17.86 109.083 17.67H109.045C108.754 18.126 108.361 18.4997 107.867 18.791C107.386 19.0823 106.803 19.228 106.119 19.228C105.663 19.228 105.233 19.171 104.827 19.057C104.435 18.943 104.086 18.7783 103.782 18.563C103.491 18.335 103.257 18.0563 103.079 17.727C102.902 17.3977 102.813 17.0177 102.813 16.587C102.813 15.8523 103.003 15.276 103.383 14.858C103.763 14.44 104.232 14.1297 104.789 13.927C105.359 13.7243 105.967 13.5977 106.613 13.547C107.272 13.4963 107.874 13.471 108.418 13.471H108.988V13.205C108.988 12.559 108.792 12.0713 108.399 11.742C108.019 11.4127 107.481 11.248 106.784 11.248C106.303 11.248 105.828 11.3303 105.359 11.495C104.903 11.647 104.498 11.8877 104.143 12.217L103.212 11.248ZM107.506 14.725C106.556 14.725 105.803 14.858 105.245 15.124C104.688 15.39 104.409 15.827 104.409 16.435C104.409 16.9923 104.593 17.3913 104.96 17.632C105.34 17.86 105.809 17.974 106.366 17.974C106.797 17.974 107.171 17.9043 107.487 17.765C107.817 17.613 108.089 17.4167 108.304 17.176C108.52 16.9353 108.684 16.6567 108.798 16.34C108.912 16.0107 108.976 15.6623 108.988 15.295V14.725H107.506ZM113.179 12.217C113.179 11.8117 113.166 11.4317 113.141 11.077C113.116 10.7223 113.103 10.3993 113.103 10.108H114.509C114.509 10.3487 114.515 10.5893 114.528 10.83C114.541 11.0707 114.547 11.3177 114.547 11.571H114.585C114.686 11.3557 114.826 11.1467 115.003 10.944C115.193 10.7413 115.415 10.564 115.668 10.412C115.921 10.2473 116.206 10.1207 116.523 10.032C116.84 9.93067 117.182 9.88 117.549 9.88C117.65 9.88 117.752 9.88633 117.853 9.899C117.954 9.91167 118.056 9.937 118.157 9.975L118.062 11.476C117.809 11.4 117.543 11.362 117.264 11.362C116.352 11.362 115.687 11.6597 115.269 12.255C114.864 12.8377 114.661 13.642 114.661 14.668V19H113.179V12.217ZM124.723 11.362H122.101V15.808C122.101 16.0993 122.107 16.3717 122.12 16.625C122.132 16.8657 122.183 17.081 122.272 17.271C122.36 17.4483 122.493 17.594 122.671 17.708C122.848 17.8093 123.101 17.86 123.431 17.86C123.646 17.86 123.868 17.8347 124.096 17.784C124.324 17.7333 124.539 17.6573 124.742 17.556L124.799 18.905C124.545 19.019 124.26 19.1013 123.944 19.152C123.64 19.2027 123.348 19.228 123.07 19.228C122.538 19.228 122.113 19.1583 121.797 19.019C121.48 18.8797 121.233 18.6833 121.056 18.43C120.878 18.1767 120.758 17.8663 120.695 17.499C120.644 17.119 120.619 16.701 120.619 16.245V11.362H118.681V10.108H120.619V7.581H122.101V10.108H124.723V11.362ZM131.313 14.554C131.313 13.8573 131.434 13.224 131.674 12.654C131.915 12.084 132.244 11.5963 132.662 11.191C133.08 10.773 133.581 10.45 134.163 10.222C134.746 9.994 135.379 9.88 136.063 9.88C136.747 9.88 137.381 9.994 137.963 10.222C138.546 10.45 139.046 10.773 139.464 11.191C139.882 11.5963 140.212 12.084 140.452 12.654C140.693 13.224 140.813 13.8573 140.813 14.554C140.813 15.2507 140.693 15.884 140.452 16.454C140.212 17.024 139.882 17.518 139.464 17.936C139.046 18.3413 138.546 18.658 137.963 18.886C137.381 19.114 136.747 19.228 136.063 19.228C135.379 19.228 134.746 19.114 134.163 18.886C133.581 18.658 133.08 18.3413 132.662 17.936C132.244 17.518 131.915 17.024 131.674 16.454C131.434 15.884 131.313 15.2507 131.313 14.554ZM132.909 14.554C132.909 15.0227 132.979 15.4597 133.118 15.865C133.27 16.2577 133.486 16.606 133.764 16.91C134.043 17.2013 134.372 17.4357 134.752 17.613C135.145 17.7777 135.582 17.86 136.063 17.86C136.545 17.86 136.975 17.7777 137.355 17.613C137.748 17.4357 138.084 17.2013 138.362 16.91C138.641 16.606 138.85 16.2577 138.989 15.865C139.141 15.4597 139.217 15.0227 139.217 14.554C139.217 14.0853 139.141 13.6547 138.989 13.262C138.85 12.8567 138.641 12.5083 138.362 12.217C138.084 11.913 137.748 11.6787 137.355 11.514C136.975 11.3367 136.545 11.248 136.063 11.248C135.582 11.248 135.145 11.3367 134.752 11.514C134.372 11.6787 134.043 11.913 133.764 12.217C133.486 12.5083 133.27 12.8567 133.118 13.262C132.979 13.6547 132.909 14.0853 132.909 14.554ZM143.868 11.362H141.93V10.108H143.868V8.113C143.868 7.56833 143.918 7.07433 144.02 6.631C144.121 6.175 144.292 5.78233 144.533 5.453C144.786 5.12367 145.115 4.87033 145.521 4.693C145.926 4.503 146.426 4.408 147.022 4.408C147.212 4.408 147.414 4.427 147.63 4.465C147.845 4.503 148.022 4.56 148.162 4.636L147.953 5.966C147.598 5.83933 147.262 5.776 146.946 5.776C146.566 5.776 146.268 5.84567 146.053 5.985C145.837 6.11167 145.673 6.29533 145.559 6.536C145.457 6.764 145.394 7.04267 145.369 7.372C145.356 7.70133 145.35 8.056 145.35 8.436V10.108H147.516V11.362H145.35V19H143.868V11.362Z" fill="white"/>
</svg>
