<svg width="100" height="100" viewBox="0 0 100 100" fill="none" xmlns="http://www.w3.org/2000/svg">
<path d="M4.44 30.66H0.610001V59.19H4.44V30.66Z" fill="#333333"/>
<path d="M6.98001 30.66H5.96001V45.01H6.98001V30.66Z" fill="#333333"/>
<path d="M9.1 30.66H8.08V45.01H9.1V30.66Z" fill="#333333"/>
<path d="M19.78 34.51H23.45V43.24H19.78V34.51ZM37 33.41H38.36V56.41H37V33.41ZM54.08 30.66L48.62 56.44H42.18V30.68H40H32.85V33.43H36V56.43H33.69V45H30.82V43.24H27.3V34.51H30.82V30.68H18.47H14.82V59.2H19.82V47.1H23.49V59.2H27.32V47.1H30.7V59.2H52.3V56.46H51.05L56.56 30.68H54.08V30.66Z" fill="#333333"/>
<path d="M58.93 30.66V30.68H57.43V59.17H61.28V42.06L64.82 59.19H69.12L63.3 30.66H58.93Z" fill="#333333"/>
<path d="M40.61 68.67C39.48 68.67 38.89 68.18 38.89 67.05V66.73H40.06V67C40.06 67.45 40.15 67.74 40.6 67.74C40.6774 67.7449 40.755 67.7328 40.8272 67.7044C40.8994 67.6761 40.9645 67.6322 41.0179 67.5759C41.0714 67.5197 41.1118 67.4524 41.1363 67.3788C41.1609 67.3052 41.1689 67.2271 41.16 67.15C41.16 65.92 38.89 66.36 38.89 64.54C38.8826 64.3157 38.9221 64.0924 39.0061 63.8843C39.0901 63.6762 39.2167 63.488 39.3777 63.3317C39.5387 63.1753 39.7306 63.0544 39.9411 62.9766C40.1516 62.8989 40.376 62.866 40.6 62.88C40.8269 62.8451 41.0588 62.8627 41.2779 62.9315C41.4969 63.0003 41.6972 63.1185 41.8634 63.2769C42.0296 63.4354 42.1571 63.6298 42.2363 63.8454C42.3155 64.0609 42.3441 64.2917 42.32 64.52V64.9H41.16V64.55C41.16 64.03 40.93 63.81 40.61 63.81C40.29 63.81 40.07 64.03 40.07 64.42C40.07 65.56 42.34 65.11 42.34 67C42.3561 67.2282 42.3218 67.4572 42.2395 67.6707C42.1572 67.8842 42.029 68.077 41.8639 68.2354C41.6989 68.3938 41.501 68.5139 41.2843 68.5873C41.0676 68.6607 40.8374 68.6855 40.61 68.66" fill="#333333"/>
<path d="M68.57 62.94H67.4V68.6H68.57V62.94Z" fill="#333333"/>
<path d="M69.44 68.61V62.94H70.85L72.18 66.59V62.94H73.23V68.61H71.82L70.5 64.96V68.61H69.44Z" fill="#333333"/>
<path d="M75.75 68.66C74.61 68.66 74.02 68.16 74.02 67.03V66.72H75.19V67C75.19 67.44 75.29 67.74 75.73 67.74C75.8079 67.7467 75.8863 67.7359 75.9594 67.7082C76.0324 67.6804 76.0983 67.6366 76.1522 67.5799C76.206 67.5232 76.2463 67.4551 76.2702 67.3807C76.294 67.3063 76.3008 67.2274 76.29 67.15C76.29 65.91 74.02 66.36 74.02 64.53C74.0126 64.3057 74.0521 64.0824 74.1361 63.8743C74.2201 63.6662 74.3467 63.4779 74.5077 63.3216C74.6687 63.1653 74.8606 63.0444 75.0711 62.9666C75.2816 62.8888 75.506 62.8559 75.73 62.87C76.87 62.87 77.46 63.43 77.46 64.51V64.89H76.29V64.53C76.29 64.01 76.06 63.79 75.75 63.79C75.44 63.79 75.21 64.01 75.21 64.4C75.21 65.53 77.48 65.09 77.48 66.98C77.4992 67.2098 77.4672 67.441 77.3863 67.657C77.3054 67.873 77.1777 68.0684 77.0122 68.229C76.8468 68.3897 76.6477 68.5117 76.4295 68.5862C76.2112 68.6607 75.9792 68.6859 75.75 68.66Z" fill="#333333"/>
<path d="M79.1 68.61V63.89H77.92V62.94H81.44L81.42 63.89H80.27V68.61H79.1Z" fill="#333333"/>
<path d="M83.22 62.94H82.05V68.6H83.22V62.94Z" fill="#333333"/>
<path d="M85.01 68.61V63.89H83.84V62.94H87.34V63.89H86.17V68.61H85.01Z" fill="#333333"/>
<path d="M89.89 68.66C89.6226 68.6903 89.3519 68.6588 89.0985 68.5681C88.8452 68.4774 88.616 68.3297 88.4287 68.1366C88.2413 67.9434 88.1007 67.7099 88.0178 67.4539C87.9348 67.1979 87.9116 66.9263 87.95 66.66V63H89.17V66.9C89.17 67.59 89.4 67.79 89.87 67.79C90.34 67.79 90.6 67.59 90.6 66.9V63H91.81V66.7C91.8498 66.9649 91.8283 67.2353 91.7472 67.4906C91.666 67.7458 91.5274 67.979 91.3419 68.1722C91.1564 68.3654 90.9291 68.5135 90.6773 68.605C90.4256 68.6965 90.1563 68.729 89.89 68.7" fill="#333333"/>
<path d="M93.61 68.61V63.89H92.44V62.94H95.94V63.89H94.77V68.61H93.61Z" fill="#333333"/>
<path d="M27.21 66.55V65C27.2321 64.7274 27.1938 64.4533 27.0979 64.1972C27.002 63.9411 26.8507 63.7093 26.655 63.5183C26.4592 63.3273 26.2237 63.1818 25.9653 63.0922C25.7069 63.0027 25.432 62.9712 25.16 63H23.45V68.66H25.18C25.4518 68.6753 25.7238 68.6321 25.9775 68.5331C26.2311 68.4342 26.4606 68.2819 26.6502 68.0865C26.8399 67.8912 26.9853 67.6573 27.0767 67.4009C27.1681 67.1444 27.2034 66.8713 27.18 66.6L27.21 66.55ZM26.02 66.83C26.0307 66.9496 26.0151 67.07 25.9741 67.1829C25.9332 67.2957 25.868 67.3982 25.7831 67.4831C25.6982 67.568 25.5957 67.6332 25.4829 67.6741C25.37 67.7151 25.2496 67.7307 25.13 67.72H24.59V63.91H25.15C25.2675 63.9008 25.3855 63.9173 25.4959 63.9584C25.6063 63.9996 25.7064 64.0643 25.7893 64.148C25.8721 64.2318 25.9357 64.3327 25.9755 64.4435C26.0154 64.5544 26.0305 64.6726 26.02 64.79V66.83Z" fill="#333333"/>
<path d="M30.22 67.36L30.45 68.63H31.65L30.44 63H28.84L27.64 68.66H28.88L29.07 67.39L30.22 67.36ZM29.22 66.42L29.6 64.12L30.03 66.42H29.22Z" fill="#333333"/>
<path d="M32.31 68.61V62.97H33.71L35.06 66.6V62.97H36.11V68.61H34.7L33.36 64.97V68.61H32.31Z" fill="#333333"/>
<path d="M38.1 62.97H36.93V68.63H38.1V62.97Z" fill="#333333"/>
<path d="M45.88 68.59V66.13H44.28V68.59H43.11V62.94H44.28V65.19H45.88V62.94H47.04V68.59H45.88Z" fill="#333333"/>
<path d="M99.26 68.59H96.56V62.94H99.18V63.89H97.73V65.19H99.14V66.13H97.73V67.66H99.26V68.59Z" fill="#333333"/>
<path d="M51.23 63.89V65.19H52.68V66.13H51.23V68.61H50.07V62.95H53.06V63.89H51.23Z" fill="#333333"/>
<path d="M54.84 62.94H53.67V68.6H54.84V62.94Z" fill="#333333"/>
<path d="M55.71 68.61V62.95H56.88V67.66H58.57V68.61H55.71Z" fill="#333333"/>
<path d="M63.29 68.61V64.15L62.32 68.61H61.13L60.23 64.1V68.61H59.18V62.94H61.05L61.77 66.98L62.48 62.94H64.34V68.61H63.29Z" fill="#333333"/>
</svg>
