<svg width="100" height="100" viewBox="0 0 100 100" fill="none" xmlns="http://www.w3.org/2000/svg">
<path d="M28.92 47.83C27.9794 47.8519 27.047 47.6497 26.2 47.24C25.4303 46.8568 24.7725 46.2816 24.29 45.57C23.7528 44.7529 23.3793 43.8394 23.19 42.88C22.71 40.4804 22.71 38.0095 23.19 35.61C23.3775 34.647 23.7512 33.7299 24.29 32.91C24.7732 32.1965 25.4307 31.6182 26.2 31.23C27.0479 30.8238 27.9802 30.625 28.92 30.65C29.8629 30.626 30.7982 30.8248 31.65 31.23C32.4147 31.6211 33.0682 32.1989 33.55 32.91C34.0881 33.7313 34.4648 34.6477 34.66 35.61C35.1267 38.0109 35.1267 40.4791 34.66 42.88C34.4629 43.8386 34.0863 44.7513 33.55 45.57C33.0703 46.2803 32.416 46.8554 31.65 47.24C30.7991 47.6487 29.8637 47.8508 28.92 47.83V47.83ZM28.92 45.64C29.4255 45.6819 29.9323 45.5768 30.3795 45.3373C30.8266 45.0978 31.1949 44.7341 31.44 44.29C31.9897 43.1478 32.2441 41.886 32.18 40.62V37.83C32.242 36.5738 31.9876 35.3222 31.44 34.19C31.1949 33.7459 30.8266 33.3822 30.3795 33.1427C29.9323 32.9032 29.4255 32.798 28.92 32.84C28.4145 32.798 27.9077 32.9032 27.4606 33.1427C27.0134 33.3822 26.6451 33.7459 26.4 34.19C25.8573 35.3238 25.6031 36.5742 25.66 37.83V40.65C25.6031 41.9058 25.8573 43.1561 26.4 44.29C26.6451 44.7341 27.0134 45.0978 27.4606 45.3373C27.9077 45.5768 28.4145 45.6819 28.92 45.64V45.64Z" fill="#333333"/>
<path d="M38.06 47.54V30.93H44.27C44.9343 30.8873 45.6001 30.9836 46.2251 31.2125C46.8501 31.4415 47.4206 31.7983 47.9 32.26C48.7754 33.2718 49.2236 34.5841 49.15 35.92C49.2252 37.2531 48.7767 38.5629 47.9 39.57C47.422 40.0338 46.8518 40.3919 46.2264 40.621C45.6011 40.8502 44.9345 40.9452 44.27 40.9H40.72V47.54H38.06ZM40.72 38.71H43.86C45.51 38.71 46.34 37.95 46.34 36.42V35.42C46.34 33.91 45.51 33.15 43.86 33.15H40.72V38.71Z" fill="#333333"/>
<path d="M52.38 47.54V30.93H62.78V33.17H55.05V38H62.49V40.24H55.05V45.3H62.78V47.54H52.38Z" fill="#333333"/>
<path d="M68.87 34.76H68.66V47.54H66.32V30.93H69.75L74.63 43.71H74.84V30.93H77.17V47.54H73.75L68.87 34.76Z" fill="#333333"/>
<path d="M26.42 68.36H23.78V51.75H30C30.6644 51.7054 31.3308 51.8008 31.9561 52.0299C32.5814 52.259 33.1516 52.6167 33.63 53.08C34.5054 54.0918 34.9536 55.4041 34.88 56.74C34.9244 57.8574 34.5974 58.9581 33.95 59.87C33.6283 60.2857 33.2277 60.6339 32.7713 60.8947C32.3149 61.1556 31.8115 61.3238 31.29 61.39L35.12 68.39H32.12L28.6 61.66H26.42V68.36ZM29.61 59.51C31.26 59.51 32.09 58.75 32.09 57.24V56.24C32.09 54.73 31.26 53.97 29.61 53.97H26.42V59.54L29.61 59.51Z" fill="#333333"/>
<path d="M40.32 55.58H40.1V68.36H37.77V51.75H41.2L46.08 64.53H46.29V51.75H48.62V68.36H45.2L40.32 55.58Z" fill="#333333"/>
<path d="M52.29 51.75H57.23C58.139 51.6761 59.052 51.8314 59.8853 52.2018C60.7187 52.5722 61.4458 53.1458 62 53.87C63.1399 55.7246 63.6746 57.8879 63.53 60.06C63.6732 62.2288 63.1385 64.3885 62 66.24C61.4508 66.9596 60.7304 67.5306 59.9043 67.9008C59.0782 68.2711 58.1727 68.4289 57.27 68.36H52.29V51.75ZM57.07 66.17C57.5846 66.2128 58.1017 66.1285 58.576 65.9245C59.0504 65.7205 59.4672 65.403 59.79 65C60.4527 63.9542 60.7677 62.7256 60.69 61.49V58.68C60.7704 57.4441 60.4552 56.2147 59.79 55.17C59.4749 54.7547 59.0611 54.4246 58.5861 54.2098C58.1111 53.995 57.59 53.9023 57.07 53.94H54.93V66.17H57.07Z" fill="#333333"/>
<path d="M69.25 68.36H66.61V51.75H72.82C73.4844 51.7061 74.1506 51.8017 74.7758 52.0308C75.401 52.2598 75.9713 52.6173 76.45 53.08C77.3254 54.0918 77.7736 55.4041 77.7 56.74C77.7444 57.8575 77.4174 58.9581 76.77 59.87C76.4471 60.2869 76.045 60.6357 75.5868 60.8966C75.1285 61.1574 74.6233 61.3251 74.1 61.39L77.94 68.39H75L71.48 61.66H69.25V68.36ZM72.44 59.51C74.09 59.51 74.91 58.75 74.91 57.24V56.24C74.91 54.73 74.09 53.97 72.44 53.97H69.25V59.54L72.44 59.51Z" fill="#333333"/>
</svg>
