<svg width="100" height="100" viewBox="0 0 100 100" fill="none" xmlns="http://www.w3.org/2000/svg">
<path d="M18.57 35C18.5769 34.1642 18.8528 33.3529 19.3569 32.6862C19.8609 32.0195 20.5663 31.5329 21.3685 31.2984C22.1707 31.0639 23.0271 31.094 23.8109 31.3843C24.5946 31.6745 25.264 32.2095 25.72 32.91L23.93 34.18C23.7928 33.9045 23.5818 33.6726 23.3204 33.5102C23.0591 33.3477 22.7577 33.2611 22.45 33.26C22.01 33.2933 21.5989 33.4916 21.2989 33.8152C20.9989 34.1388 20.8322 34.5637 20.8322 35.005C20.8322 35.4462 20.9989 35.8712 21.2989 36.1948C21.5989 36.5183 22.01 36.7166 22.45 36.75C22.759 36.7491 23.0616 36.6615 23.3233 36.4971C23.5849 36.3326 23.7952 36.098 23.93 35.82L25.72 37C25.2685 37.6948 24.607 38.2272 23.8318 38.5198C23.0566 38.8124 22.2082 38.8498 21.4103 38.6266C20.6123 38.4034 19.9065 37.9313 19.3956 37.2789C18.8847 36.6266 18.5955 35.8282 18.57 35V35Z" fill="#333333"/>
<path d="M30.28 33.31C29.7841 33.3139 29.3044 33.4867 28.92 33.8V38.69H26.66V31.22H28.92V31.88C29.1183 31.6213 29.3769 31.415 29.6732 31.279C29.9695 31.1431 30.2945 31.0816 30.62 31.1C30.8945 31.0992 31.1675 31.1396 31.43 31.22V33.57C31.0719 33.3957 30.6783 33.3067 30.28 33.31V33.31Z" fill="#333333"/>
<path d="M32 35C31.9736 34.4894 32.0531 33.9788 32.2334 33.5004C32.4138 33.0219 32.691 32.5859 33.0478 32.2197C33.4047 31.8535 33.8333 31.565 34.3069 31.3723C34.7805 31.1796 35.2889 31.0869 35.8 31.1C36.2792 31.0756 36.7582 31.152 37.206 31.3243C37.6538 31.4966 38.0605 31.7609 38.3998 32.1002C38.7391 32.4395 39.0034 32.8462 39.1757 33.294C39.348 33.7418 39.4244 34.2208 39.4 34.7C39.4141 34.9198 39.4141 35.1402 39.4 35.36H34.11C34.1552 35.755 34.3486 36.1182 34.6511 36.3762C34.9536 36.6342 35.3428 36.7678 35.74 36.75C36.0754 36.7587 36.4059 36.6685 36.6904 36.4907C36.9749 36.3129 37.2008 36.0553 37.34 35.75L39.13 37C38.7677 37.5619 38.2681 38.0221 37.6784 38.3371C37.0887 38.6521 36.4284 38.8114 35.76 38.8C34.7599 38.7869 33.8051 38.3811 33.1017 37.6701C32.3982 36.9592 32.0025 36.0002 32 35V35ZM37.17 34C37.0816 33.6831 36.8829 33.4081 36.6097 33.2248C36.3365 33.0414 36.0068 32.9617 35.68 33C35.3482 32.969 35.0156 33.0508 34.7362 33.2323C34.4567 33.4138 34.2466 33.6843 34.14 34H37.17Z" fill="#333333"/>
<path d="M43.77 38.81C43.2803 38.8051 42.7966 38.7017 42.3476 38.506C41.8987 38.3102 41.4938 38.0261 41.1569 37.6706C40.8201 37.3151 40.5582 36.8955 40.387 36.4367C40.2157 35.9778 40.1385 35.4893 40.16 35C40.133 34.5075 40.206 34.0145 40.3748 33.551C40.5435 33.0875 40.8045 32.663 41.1419 32.3032C41.4793 31.9434 41.8862 31.6557 42.3379 31.4575C42.7896 31.2592 43.2768 31.1547 43.77 31.15C44.3687 31.1474 44.9505 31.3484 45.42 31.72V31.27H47.67V38.74H45.42V38.29C44.944 38.6437 44.3628 38.8269 43.77 38.81V38.81ZM45.42 36.12V33.79C45.276 33.5891 45.085 33.4265 44.8635 33.3167C44.6421 33.2068 44.3971 33.153 44.15 33.16C43.6971 33.1938 43.2737 33.3976 42.9647 33.7305C42.6558 34.0634 42.4841 34.5008 42.4841 34.955C42.4841 35.4092 42.6558 35.8466 42.9647 36.1795C43.2737 36.5124 43.6971 36.7162 44.15 36.75C44.3971 36.7569 44.6421 36.7031 44.8635 36.5933C45.085 36.4835 45.276 36.3209 45.42 36.12V36.12Z" fill="#333333"/>
<path d="M49.7 36.39V33.19H48.7L48.21 31.19H49.7V30.1L52 29V31.24H54.36L53.87 33.24H52V35.8C52 36.42 52.26 36.68 52.87 36.68H54.1V38.74H52C51.6868 38.7669 51.3716 38.7241 51.0769 38.6148C50.7822 38.5055 50.5154 38.3323 50.2955 38.1077C50.0757 37.883 49.9083 37.6125 49.8053 37.3156C49.7023 37.0186 49.6664 36.7025 49.7 36.39V36.39Z" fill="#333333"/>
<path d="M56.45 28C56.6263 27.9986 56.8012 28.0324 56.9644 28.0993C57.1275 28.1661 57.2758 28.2648 57.4005 28.3895C57.5252 28.5142 57.6238 28.6624 57.6907 28.8256C57.7576 28.9888 57.7913 29.1636 57.79 29.34C57.8002 29.6509 57.6931 29.9543 57.49 30.19H55.4C55.201 29.9519 55.0945 29.6502 55.1 29.34C55.1 29.1632 55.135 28.9881 55.2029 28.8249C55.2709 28.6616 55.3705 28.5135 55.496 28.3889C55.6215 28.2643 55.7704 28.1658 55.9341 28.0991C56.0979 28.0323 56.2732 27.9987 56.45 28V28ZM55.31 38.69V31.22H57.58V38.69H55.31Z" fill="#333333"/>
<path d="M64.2 31.22H66.8L62.45 38.81L58.11 31.22H60.7L62.45 34.48L64.2 31.22Z" fill="#333333"/>
<path d="M66.42 35C66.4003 34.4891 66.4864 33.9797 66.673 33.5037C66.8595 33.0277 67.1424 32.5954 67.5039 32.2339C67.8654 31.8724 68.2977 31.5895 68.7737 31.403C69.2497 31.2165 69.7591 31.1303 70.27 31.15C70.7492 31.1256 71.2282 31.202 71.676 31.3743C72.1238 31.5466 72.5305 31.8109 72.8698 32.1502C73.2091 32.4895 73.4734 32.8962 73.6457 33.344C73.818 33.7918 73.8944 34.2708 73.87 34.75C73.8843 34.9698 73.8843 35.1902 73.87 35.41H68.59C68.6328 35.8042 68.8241 36.1673 69.125 36.4255C69.4259 36.6837 69.8139 36.8176 70.21 36.8C70.5456 36.81 70.8767 36.7203 71.1615 36.5424C71.4462 36.3644 71.6719 36.1061 71.81 35.8L73.6 37C73.2398 37.5639 72.7407 38.0257 72.1505 38.3409C71.5603 38.6562 70.8989 38.8143 70.23 38.8C69.2212 38.8 68.2537 38.4 67.5394 37.6876C66.8252 36.9753 66.4226 36.0087 66.42 35V35ZM71.65 34V33.91C71.5616 33.5931 71.3629 33.3181 71.0897 33.1348C70.8165 32.9514 70.4868 32.8717 70.16 32.91C69.8162 32.8822 69.4736 32.9761 69.192 33.1753C68.9105 33.3746 68.708 33.6665 68.62 34H71.65Z" fill="#333333"/>
<path d="M20.14 42.9C20.3163 42.8987 20.4912 42.9324 20.6544 42.9993C20.8175 43.0662 20.9658 43.1648 21.0905 43.2895C21.2152 43.4142 21.3138 43.5625 21.3807 43.7256C21.4476 43.8888 21.4813 44.0637 21.48 44.24C21.4902 44.5509 21.3831 44.8543 21.18 45.09H19.09C18.891 44.852 18.7845 44.5502 18.79 44.24C18.79 44.0632 18.825 43.8881 18.8929 43.7249C18.9609 43.5617 19.0605 43.4135 19.186 43.2889C19.3115 43.1644 19.4604 43.0659 19.6241 42.9991C19.7879 42.9324 19.9632 42.8987 20.14 42.9V42.9ZM19 53.62V46.15H21.27V53.62H19Z" fill="#333333"/>
<path d="M26.5 48.09C25.9842 48.1209 25.5004 48.3503 25.15 48.73V53.62H22.9V46.15H25.15V46.6C25.6389 46.2111 26.2453 45.9996 26.87 46C27.3187 45.9743 27.7676 46.0465 28.1857 46.2116C28.6037 46.3767 28.9809 46.6307 29.291 46.956C29.6011 47.2814 29.8367 47.6702 29.9816 48.0957C30.1265 48.5211 30.1771 48.973 30.13 49.42V53.59H27.87V49.85C27.87 48.85 27.48 48.09 26.5 48.09Z" fill="#333333"/>
<path d="M34.89 53.74C33.9016 53.6896 32.9702 53.2615 32.2884 52.5441C31.6066 51.8267 31.2264 50.8747 31.2264 49.885C31.2264 48.8953 31.6066 47.9433 32.2884 47.2259C32.9702 46.5085 33.9016 46.0804 34.89 46.03C35.486 46.0257 36.0652 46.227 36.53 46.6V43H38.79V53.6H36.53V53.15C36.0679 53.5302 35.4884 53.7387 34.89 53.74ZM36.53 51.05V48.72C36.386 48.5191 36.195 48.3565 35.9735 48.2467C35.7521 48.1368 35.5071 48.083 35.26 48.09C34.8071 48.1238 34.3837 48.3276 34.0747 48.6605C33.7658 48.9934 33.5941 49.4308 33.5941 49.885C33.5941 50.3392 33.7658 50.7766 34.0747 51.1095C34.3837 51.4424 34.8071 51.6462 35.26 51.68C35.5071 51.687 35.7521 51.6332 35.9735 51.5233C36.195 51.4135 36.386 51.2509 36.53 51.05V51.05Z" fill="#333333"/>
<path d="M45.3 53.06C44.8071 53.4923 44.1756 53.7336 43.52 53.74C43.0757 53.7584 42.6327 53.6808 42.2213 53.5123C41.8098 53.3438 41.4395 53.0885 41.1357 52.7639C40.8319 52.4392 40.6018 52.0528 40.461 51.631C40.3202 51.2092 40.2721 50.7621 40.32 50.32V46.15H42.58V49.91C42.58 50.91 43 51.68 43.89 51.68C44.1713 51.6834 44.4488 51.6144 44.6957 51.4795C44.9427 51.3446 45.1508 51.1485 45.3 50.91V46.15H47.55V53.62H45.3V53.06Z" fill="#333333"/>
<path d="M51.39 53.74C50.7912 53.7831 50.1923 53.6569 49.6618 53.3757C49.1312 53.0945 48.6905 52.6698 48.39 52.15L50.1 51C50.2156 51.2702 50.408 51.5005 50.6534 51.6622C50.8987 51.824 51.1861 51.9102 51.48 51.91C51.79 51.91 52.06 51.84 52.06 51.57C52.06 51.3 51.85 51.19 51.12 50.91L50.73 50.76C50.1824 50.6292 49.6917 50.3248 49.3313 49.8923C48.9708 49.4597 48.7599 48.9222 48.73 48.36C48.7314 48.0297 48.8015 47.7034 48.9358 47.4017C49.0702 47.0999 49.2658 46.8295 49.5104 46.6075C49.7549 46.3855 50.043 46.2169 50.3563 46.1123C50.6695 46.0077 51.0012 45.9695 51.33 46C51.7909 45.9822 52.2489 46.0809 52.6614 46.2872C53.074 46.4935 53.4278 46.8006 53.69 47.18L52.4 48.48C52.2933 48.2866 52.139 48.1236 51.9518 48.0064C51.7646 47.8892 51.5506 47.8216 51.33 47.81C51.03 47.81 50.79 47.91 50.79 48.15C50.79 48.39 51.03 48.54 51.79 48.82L52.1 48.94C53.52 49.48 54.1 50.26 54.1 51.36C54.0984 51.7009 54.0245 52.0375 53.8832 52.3477C53.742 52.6579 53.5365 52.9346 53.2803 53.1596C53.0242 53.3845 52.7233 53.5525 52.3975 53.6526C52.0716 53.7526 51.7282 53.7824 51.39 53.74V53.74Z" fill="#333333"/>
<path d="M55.64 51.32V48.12H54.64L54.15 46.12H55.61V45L57.87 43.88V46.12H60.23L59.73 48.12H57.9V50.68C57.9 51.3 58.15 51.56 58.76 51.56H60V53.62H57.93C57.6222 53.6443 57.3129 53.6013 57.0234 53.4942C56.7338 53.387 56.4711 53.2182 56.2532 52.9994C56.0354 52.7807 55.8678 52.5172 55.7619 52.2272C55.656 51.9372 55.6144 51.6277 55.64 51.32V51.32Z" fill="#333333"/>
<path d="M64.87 48.24C64.3744 48.2455 63.8952 48.4181 63.51 48.73V53.62H61.26V46.15H63.51V46.81C63.7083 46.5513 63.9669 46.3449 64.2632 46.209C64.5595 46.0731 64.8845 46.0116 65.21 46.03C65.4845 46.0286 65.7577 46.069 66.02 46.15V48.5C65.6626 48.3236 65.2685 48.2345 64.87 48.24V48.24Z" fill="#333333"/>
<path d="M68.11 42.9C68.2863 42.8987 68.4612 42.9324 68.6244 42.9993C68.7875 43.0662 68.9358 43.1648 69.0605 43.2895C69.1852 43.4142 69.2838 43.5625 69.3507 43.7256C69.4176 43.8888 69.4513 44.0637 69.45 44.24C69.4602 44.5509 69.3531 44.8543 69.15 45.09H67.06C66.8646 44.8505 66.7617 44.5489 66.77 44.24C66.7687 44.0637 66.8024 43.8888 66.8693 43.7256C66.9362 43.5625 67.0348 43.4142 67.1595 43.2895C67.2842 43.1648 67.4325 43.0662 67.5956 42.9993C67.7588 42.9324 67.9337 42.8987 68.11 42.9ZM67 53.62V46.15H69.27V53.62H67Z" fill="#333333"/>
<path d="M70.44 49.88C70.4161 49.3667 70.499 48.854 70.6836 48.3744C70.8683 47.8948 71.1505 47.4588 71.5124 47.094C71.8744 46.7292 72.3082 46.4436 72.7863 46.2553C73.2645 46.067 73.7765 45.98 74.29 46C74.7692 45.9756 75.2482 46.052 75.696 46.2243C76.1438 46.3966 76.5505 46.6609 76.8898 47.0002C77.2291 47.3395 77.4934 47.7461 77.6657 48.194C77.838 48.6418 77.9144 49.1208 77.89 49.6C77.9041 49.8198 77.9041 50.0402 77.89 50.26H72.6C72.6452 50.655 72.8386 51.0182 73.1411 51.2762C73.4436 51.5342 73.8328 51.6678 74.23 51.65C74.5587 51.6627 74.8841 51.5809 75.1676 51.4143C75.4512 51.2477 75.6811 51.0032 75.83 50.71L77.62 51.91C77.2578 52.4719 76.7582 52.9321 76.1685 53.2471C75.5788 53.562 74.9184 53.7214 74.25 53.71C73.748 53.71 73.2509 53.6108 72.7873 53.4181C72.3238 53.2253 71.9029 52.9429 71.5488 52.587C71.1948 52.2311 70.9145 51.8087 70.7243 51.3441C70.534 50.8796 70.4374 50.382 70.44 49.88V49.88ZM75.66 49V48.91C75.5716 48.593 75.3729 48.3181 75.0997 48.1347C74.8265 47.9514 74.4968 47.8717 74.17 47.91C73.8266 47.8841 73.4849 47.9788 73.2038 48.1778C72.9227 48.3767 72.7198 48.6675 72.63 49H75.66Z" fill="#333333"/>
<path d="M81.4 53.74C80.8011 53.7831 80.2022 53.6569 79.6717 53.3757C79.1412 53.0945 78.7005 52.6698 78.4 52.15L80.11 51C80.2266 51.2694 80.4193 51.499 80.6644 51.6606C80.9095 51.8222 81.1964 51.9089 81.49 51.91C81.8 51.91 82.07 51.84 82.07 51.57C82.07 51.3 81.86 51.19 81.13 50.91L80.74 50.76C80.1924 50.6292 79.7017 50.3248 79.3413 49.8923C78.9808 49.4597 78.7699 48.9222 78.74 48.36C78.7414 48.0297 78.8114 47.7034 78.9458 47.4017C79.0801 47.0999 79.2758 46.8295 79.5204 46.6075C79.7649 46.3855 80.053 46.2169 80.3663 46.1123C80.6795 46.0077 81.0111 45.9695 81.34 46C81.8009 45.9822 82.2588 46.0809 82.6714 46.2872C83.0839 46.4935 83.4377 46.8006 83.7 47.18L82.41 48.45C82.3033 48.2566 82.149 48.0936 81.9618 47.9764C81.7746 47.8592 81.5606 47.7916 81.34 47.78C81.04 47.78 80.8 47.88 80.8 48.12C80.8 48.36 81.04 48.51 81.8 48.79L82.11 48.91C83.53 49.45 84.11 50.23 84.11 51.33C84.1127 51.6734 84.0419 52.0134 83.9025 52.3272C83.7631 52.641 83.5582 52.9214 83.3016 53.1496C83.045 53.3778 82.7426 53.5486 82.4146 53.6504C82.0867 53.7522 81.7407 53.7828 81.4 53.74V53.74Z" fill="#333333"/>
<path d="M19.33 63.05H18.33V61.05H19.42C19.1449 60.707 18.9965 60.2797 19 59.84C19.0035 59.5856 19.0588 59.3347 19.1626 59.1024C19.2664 58.8702 19.4165 58.6615 19.6037 58.4893C19.7909 58.3171 20.0113 58.1848 20.2514 58.1007C20.4915 58.0166 20.7462 57.9823 21 58H23.32V60H21.85C21.33 60 21.12 60.25 21.12 60.58C21.12 60.657 21.1353 60.7333 21.1651 60.8043C21.1948 60.8753 21.2385 60.9397 21.2934 60.9937C21.3483 61.0477 21.4134 61.0902 21.485 61.1188C21.5565 61.1473 21.633 61.1613 21.71 61.16H23.32V63.16H21.59V68.66H19.33V63.05Z" fill="#333333"/>
<path d="M29.17 68C28.6739 68.4257 28.0437 68.6629 27.39 68.67C26.9466 68.6869 26.5047 68.6082 26.0944 68.439C25.6842 68.2699 25.3152 68.0144 25.0125 67.6899C24.7098 67.3654 24.4806 66.9795 24.3404 66.5585C24.2002 66.1375 24.1523 65.6912 24.2 65.25V61.08H26.45V64.84C26.45 65.84 26.87 66.61 27.77 66.61C28.0487 66.6127 28.3235 66.5444 28.5685 66.4114C28.8134 66.2784 29.0205 66.0852 29.17 65.85V61.08H31.43V68.55H29.17V68Z" fill="#333333"/>
<path d="M36.65 63C36.3944 63.0125 36.1439 63.0765 35.9136 63.1882C35.6834 63.2999 35.4781 63.457 35.31 63.65V68.53H33.05V61.08H35.31V61.53C35.7995 61.1718 36.3936 60.9855 37 61C37.4487 60.9743 37.8976 61.0465 38.3157 61.2116C38.7337 61.3767 39.1109 61.6307 39.421 61.956C39.7311 62.2814 39.9667 62.6702 40.1116 63.0957C40.2565 63.5211 40.3071 63.973 40.26 64.42V68.59H38V64.79C38 63.78 37.64 63 36.65 63Z" fill="#333333"/>
<path d="M45 68.67C44.0584 68.5623 43.1892 68.1119 42.5583 67.4047C41.9273 66.6974 41.5786 65.7828 41.5786 64.835C41.5786 63.8872 41.9273 62.9726 42.5583 62.2653C43.1892 61.5581 44.0584 61.1077 45 61C45.596 60.9957 46.1752 61.197 46.64 61.57V58H48.9V68.6H46.68V68.1C46.2046 68.4818 45.6096 68.6837 45 68.67ZM46.68 66V63.65C46.5396 63.4441 46.3497 63.2767 46.1279 63.1631C45.906 63.0496 45.6592 62.9935 45.41 63C44.9571 63.0338 44.5337 63.2376 44.2247 63.5705C43.9158 63.9034 43.7441 64.3408 43.7441 64.795C43.7441 65.2492 43.9158 65.6866 44.2247 66.0195C44.5337 66.3524 44.9571 66.5562 45.41 66.59C45.6538 66.6032 45.8972 66.5564 46.1186 66.4535C46.3401 66.3506 46.5329 66.1949 46.68 66Z" fill="#333333"/>
<path d="M62.91 68.67L56.22 63V68.54H53.84V57.83L60.52 63.49V58H62.91V68.67Z" fill="#333333"/>
<path d="M64.78 58H67.18V66.22H71.29V68.6H64.78V58Z" fill="#333333"/>
</svg>
